<svg xmlns="http://www.w3.org/2000/svg" viewBox="-22 -26 144 144" width="288" height="288" role="img" aria-label="Darwin (Analyst): error">
<title>Darwin (Analyst): error</title>
<style>
.dma-er-hi{animation:dma-er-hi 4s ease-in-out infinite}
@keyframes dma-er-hi{0%,100%{transform:scale(1);opacity:.85}50%{transform:scale(1.12,1.06) translate(1px,-.5px);opacity:1}}
.dma-er-gl{animation:dma-er-gl 4s ease-in-out infinite -2.6s}
@keyframes dma-er-gl{0%{transform:translateX(-10px)}28%,100%{transform:translateX(125px)}}
.dma-er-bl{animation:dma-er-bl 4s linear infinite -1.8s}
@keyframes dma-er-bl{0%,22%,28%,70%,76%,82%,100%{transform:scaleY(1)}25%,73%,79%{transform:scaleY(.1)}}
.dma-er-tl{animation:dma-er-tl 4s infinite}
@keyframes dma-er-tl{0%{transform:translateX(0) rotate(-4deg);animation-timing-function:ease-in-out}6.25%{transform:translateX(-6px) rotate(-10deg);animation-timing-function:ease-in-out}11.25%{transform:translateX(5px) rotate(3deg);animation-timing-function:ease-in-out}16.25%{transform:translateX(-4px) rotate(-9deg);animation-timing-function:ease-in-out}21.25%{transform:translateX(2.5px) rotate(0deg);animation-timing-function:ease-in-out}26.25%{transform:translateX(-1px) rotate(-6deg);animation-timing-function:ease-in-out}32.5%{transform:translateX(0) rotate(-4deg);animation-timing-function:ease-in-out}65%{transform:translateX(0) rotate(-6deg);animation-timing-function:ease-in-out}100%{transform:translateX(0) rotate(-4deg)}}
.dma-er-sq{animation:dma-er-sq 4s ease-in-out infinite}
@keyframes dma-er-sq{0%{transform:scale(1.03,.96)}35%{transform:scale(1.02,.97)}60%{transform:scale(1.07,.92)}80%{transform:scale(1.03,.96)}100%{transform:scale(1.03,.96)}}
.dma-er-lk{animation:dma-er-lk 4s ease-in-out infinite}
@keyframes dma-er-lk{0%,30%,100%{transform:translate(0,2px)}45%,80%{transform:translate(2.5px,1px)}}
.dma-er-brw{animation:dma-er-brw 2s ease-in-out infinite}
@keyframes dma-er-brw{0%,100%{transform:translateY(0)}50%{transform:translateY(-1.2px)}}
.dma-er-sh{animation:dma-er-sh 4s ease-in-out infinite}
@keyframes dma-er-sh{0%,100%{transform:scale(1)}10%{transform:scale(.95) translateX(-2px)}20%{transform:scale(.95) translateX(2px)}}
.dma-er-sw{animation:dma-er-sw 2s ease-in infinite;opacity:0}
@keyframes dma-er-sw{0%,15%{transform:translate(0,-2px) scale(.4);opacity:0}30%{transform:translate(0,0) scale(1);opacity:1}75%{opacity:1}95%,100%{transform:translate(1px,12px) scale(.8);opacity:0}}
.dma-er-q1,.dma-er-q2{animation:dma-er-q 4s infinite}.dma-er-q2{animation-delay:.25s}
@keyframes dma-er-q{0%{transform:scale(0) rotate(-20deg);opacity:0}22.5%{transform:scale(0) rotate(-20deg);opacity:0;animation-timing-function:cubic-bezier(.3,1.6,.5,1)}32.5%{transform:scale(1) rotate(8deg);opacity:1;animation-timing-function:ease-in-out}50%{transform:scale(1) rotate(-8deg);opacity:1;animation-timing-function:ease-in-out}70%{transform:scale(1) rotate(6deg);opacity:1;animation-timing-function:ease-in}90%{transform:scale(.9) rotate(0) translateY(-4px);opacity:0}100%{transform:scale(0);opacity:0}}
@media (prefers-reduced-motion:reduce){*{animation:none!important}}
</style>
<defs><radialGradient id="dma-er-b" cx=".36" cy=".28" r=".8"><stop offset="0" stop-color="#a77bff"/><stop offset=".6" stop-color="#8e5cff"/><stop offset="1" stop-color="#7440f0"/></radialGradient><linearGradient id="dma-er-s" x1="0" y1="0" x2="0" y2="1"><stop offset=".45" stop-color="#0B0F3A" stop-opacity="0"/><stop offset="1" stop-color="#0B0F3A" stop-opacity=".28"/></linearGradient><radialGradient id="dma-er-h" cx=".5" cy=".5" r=".5"><stop offset="0" stop-color="#fff" stop-opacity=".85"/><stop offset="1" stop-color="#fff" stop-opacity="0"/></radialGradient><radialGradient id="dma-er-g" cx=".5" cy=".5" r=".5"><stop offset="0" stop-color="#1B2150" stop-opacity=".26"/><stop offset=".6" stop-color="#1B2150" stop-opacity=".12"/><stop offset="1" stop-color="#1B2150" stop-opacity="0"/></radialGradient><linearGradient id="dma-er-w" x1="0" y1="0" x2="1" y2="0"><stop offset="0" stop-color="#fff" stop-opacity="0"/><stop offset=".5" stop-color="#fff" stop-opacity=".55"/><stop offset="1" stop-color="#fff" stop-opacity="0"/></linearGradient><filter id="dma-er-f" x="-20%" y="-20%" width="140%" height="140%"><feDropShadow dx="0" dy="1.6" stdDeviation="1.4" flood-color="#141A4A" flood-opacity=".2"/></filter></defs>
<g transform="translate(50 108.5)"><g class="dma-er-sh"><g transform="translate(-50 -108.5)"><ellipse cx="50" cy="108.5" rx="32" ry="6.4" fill="url(#dma-er-g)"/></g></g></g><g class="dma-er-mv"><g class="dma-er-bob"><g filter="url(#dma-er-f)"><g transform="translate(50 100.5)"><g class="dma-er-sq"><g transform="translate(-50 -100.5)"><g transform="translate(50 50)"><g class="dma-er-tl"><g transform="translate(-50 -50)"><path d="M50 5a45 45 0 1 1 0 90a45 45 0 1 1 0 -90Z" fill="#fff" stroke="#fff" stroke-width="11"/><path d="M50 5a45 45 0 1 1 0 90a45 45 0 1 1 0 -90Z" fill="url(#dma-er-b)"/><path d="M50 5a45 45 0 1 1 0 90a45 45 0 1 1 0 -90Z" fill="url(#dma-er-s)"/><clipPath id="dma-er-c"><path d="M50 5a45 45 0 1 1 0 90a45 45 0 1 1 0 -90Z"/></clipPath><g clip-path="url(#dma-er-c)"><g class="dma-er-gl"><rect x="-10" y="-20" width="14" height="140" fill="url(#dma-er-w)" transform="rotate(20 0 50)"/></g></g><g transform="translate(34 24)"><g class="dma-er-hi"><g transform="translate(-34 -24)"><path d="M19 24a15 8 0 1 0 30 0a15 8 0 1 0 -30 0Z" fill="url(#dma-er-h)" opacity=".9"/><path d="M26 23a5 2.6 0 1 0 10 0a5 2.6 0 1 0 -10 0Z" fill="#fff" opacity=".8"/></g></g></g><g transform="translate(50 50)"><g class="dma-er-fc"><g transform="translate(-50 -50)"><g class="dma-er-en"><g class="dma-er-lk"><g transform="translate(50 45)"><g class="dma-er-bl"><g transform="translate(-50 -45)"><path d="M26 45H46A10 10 0 0 1 26 45ZM54 45H74A10 10 0 0 1 54 45Z" fill="#fff"/><clipPath id="dma-er-e"><path d="M26 45H46A10 10 0 0 1 26 45ZM54 45H74A10 10 0 0 1 54 45Z"/></clipPath><g clip-path="url(#dma-er-e)"><g class="dma-er-pu"><path d="M41.5 44.7a4.3 4.3 0 1 1 0 8.6a4.3 4.3 0 1 1 0 -8.6ZM69.5 44.7a4.3 4.3 0 1 1 0 8.6a4.3 4.3 0 1 1 0 -8.6Z" fill="#34198a"/></g></g></g></g></g><g class="dma-er-brw"><path d="M30 41L41 37M70 41L59 37" fill="none" stroke="#fff" stroke-width="4.5" stroke-linecap="round" stroke-linejoin="round"/></g></g></g><g class="dma-er-mn"><g transform="translate(57 69)"><g class="dma-er-mo"><g transform="translate(-57 -69)"><path d="M50 72Q57 65 64 72" fill="none" stroke="#fff" stroke-width="5" stroke-linecap="round" stroke-linejoin="round"/></g></g></g></g></g></g></g><g transform="translate(84 26) scale(1.2)"><g class="dma-er-sw"><path d="M0 -5C1.5 -2.5 3.2 -.6 3.2 1.6A3.2 3.2 0 0 1 -3.2 1.6C-3.2 -.6 -1.5 -2.5 0 -5Z" fill="#9fd4ff" stroke="#fff" stroke-width="1.6"/><circle cx="-1" cy="1" r=".9" fill="#fff"/></g></g></g></g></g></g></g></g></g></g></g><g transform="translate(98 -2) scale(1.5)"><g class="dma-er-q1"><path d="M-3.4 -4.2Q-3.4 -8 .2 -8Q3.8 -8 3.8 -4.6Q3.8 -2.2 1 -.9Q0 -.3 0 1.6" fill="none" stroke="#fff" stroke-width="6" stroke-linecap="round" stroke-linejoin="round"/><circle cx="0" cy="5.4" r="3" fill="#fff"/><path d="M-3.4 -4.2Q-3.4 -8 .2 -8Q3.8 -8 3.8 -4.6Q3.8 -2.2 1 -.9Q0 -.3 0 1.6" fill="none" stroke="#141413" stroke-width="2.6" stroke-linecap="round" stroke-linejoin="round"/><circle cx="0" cy="5.4" r="1.6" fill="#141413"/></g></g><g transform="translate(112 16)"><g class="dma-er-q2"><path d="M-3.4 -4.2Q-3.4 -8 .2 -8Q3.8 -8 3.8 -4.6Q3.8 -2.2 1 -.9Q0 -.3 0 1.6" fill="none" stroke="#fff" stroke-width="6" stroke-linecap="round" stroke-linejoin="round"/><circle cx="0" cy="5.4" r="3" fill="#fff"/><path d="M-3.4 -4.2Q-3.4 -8 .2 -8Q3.8 -8 3.8 -4.6Q3.8 -2.2 1 -.9Q0 -.3 0 1.6" fill="none" stroke="#141413" stroke-width="2.6" stroke-linecap="round" stroke-linejoin="round"/><circle cx="0" cy="5.4" r="1.6" fill="#141413"/></g></g>
</svg>
