<svg xmlns="http://www.w3.org/2000/svg" viewBox="-22 -26 144 144" width="288" height="288" role="img" aria-label="Designer: thinking">
<title>Designer: thinking</title>
<style>
.dmd-th-hi{animation:dmd-th-hi 4s ease-in-out infinite}
@keyframes dmd-th-hi{0%,100%{transform:scale(1);opacity:.85}50%{transform:scale(1.12,1.06) translate(1px,-.5px);opacity:1}}
.dmd-th-gl{animation:dmd-th-gl 4s ease-in-out infinite -2s}
@keyframes dmd-th-gl{0%{transform:translateX(-10px)}28%,100%{transform:translateX(125px)}}
.dmd-th-bl{animation:dmd-th-bl 4s linear infinite -1s}
@keyframes dmd-th-bl{0%,22%,28%,70%,76%,82%,100%{transform:scaleY(1)}25%,73%,79%{transform:scaleY(.1)}}
.dmd-th-bob{animation:dmd-th-bob 4s ease-in-out infinite}
@keyframes dmd-th-bob{0%,100%{transform:translateY(0)}50%{transform:translateY(-3px)}}
.dmd-th-sh{animation:dmd-th-sh 4s ease-in-out infinite}
@keyframes dmd-th-sh{0%,100%{transform:scale(1)}50%{transform:scale(.92)}}
.dmd-th-tl{animation:dmd-th-tl 4s ease-in-out infinite}
@keyframes dmd-th-tl{0%,100%{transform:rotate(5deg)}50%{transform:rotate(8deg)}}
.dmd-th-lk{animation:dmd-th-lk 4s ease-in-out infinite}
@keyframes dmd-th-lk{0%,100%{transform:translate(3.5px,-4px)}30%{transform:translate(4.5px,-4.5px)}60%{transform:translate(1.5px,-4px)}}
.dmd-th-mo{animation:dmd-th-mo 2s ease-in-out infinite}
@keyframes dmd-th-mo{0%,100%{transform:translateX(0)}50%{transform:translateX(-2px) rotate(-6deg)}}
.dmd-th-tb{animation:dmd-th-tb 4s ease-in-out infinite}
@keyframes dmd-th-tb{0%,100%{transform:translateY(0)}50%{transform:translateY(-1.5px)}}
.dmd-th-dt{animation:dmd-th-dt 1.333s ease-in-out infinite}.dmd-th-d1{animation-delay:.18s}.dmd-th-d2{animation-delay:.36s}
@keyframes dmd-th-dt{0%,60%,100%{transform:translateY(0);opacity:.35}25%{transform:translateY(-3px);opacity:1}}
.dmd-th-rot{animation:dmd-th-rot 4s infinite}.dmd-th-crot{animation:dmd-th-crot 4s infinite}
@keyframes dmd-th-rot{0%{transform:rotate(0deg);animation-timing-function:ease-in-out}50%{transform:rotate(-22.5deg);animation-timing-function:ease-in-out}100%{transform:rotate(-45deg)}}
@keyframes dmd-th-crot{0%{transform:rotate(0deg);animation-timing-function:ease-in-out}50%{transform:rotate(22.5deg);animation-timing-function:ease-in-out}100%{transform:rotate(45deg)}}
@media (prefers-reduced-motion:reduce){*{animation:none!important}}
</style>
<defs><radialGradient id="dmd-th-b" cx=".36" cy=".28" r=".8"><stop offset="0" stop-color="#ff9a3d"/><stop offset=".6" stop-color="#ff7a1c"/><stop offset="1" stop-color="#ec5f00"/></radialGradient><linearGradient id="dmd-th-s" x1="0" y1="0" x2="0" y2="1"><stop offset=".45" stop-color="#0B0F3A" stop-opacity="0"/><stop offset="1" stop-color="#0B0F3A" stop-opacity=".28"/></linearGradient><radialGradient id="dmd-th-h" cx=".5" cy=".5" r=".5"><stop offset="0" stop-color="#fff" stop-opacity=".85"/><stop offset="1" stop-color="#fff" stop-opacity="0"/></radialGradient><radialGradient id="dmd-th-g" cx=".5" cy=".5" r=".5"><stop offset="0" stop-color="#1B2150" stop-opacity=".26"/><stop offset=".6" stop-color="#1B2150" stop-opacity=".12"/><stop offset="1" stop-color="#1B2150" stop-opacity="0"/></radialGradient><linearGradient id="dmd-th-w" x1="0" y1="0" x2="1" y2="0"><stop offset="0" stop-color="#fff" stop-opacity="0"/><stop offset=".5" stop-color="#fff" stop-opacity=".55"/><stop offset="1" stop-color="#fff" stop-opacity="0"/></linearGradient><filter id="dmd-th-f" x="-20%" y="-20%" width="140%" height="140%"><feDropShadow dx="0" dy="1.6" stdDeviation="1.4" flood-color="#141A4A" flood-opacity=".2"/></filter></defs>
<g transform="translate(50 108)"><g class="dmd-th-sh"><g transform="translate(-50 -108)"><ellipse cx="50" cy="108" rx="31" ry="6.2" fill="url(#dmd-th-g)"/></g></g></g><g class="dmd-th-mv"><g class="dmd-th-bob"><g filter="url(#dmd-th-f)"><g transform="translate(50 101)"><g class="dmd-th-sq"><g transform="translate(-50 -101)"><g transform="translate(50 50)"><g class="dmd-th-tl"><g transform="translate(-50 -50)"><mask id="dmd-th-m" maskUnits="userSpaceOnUse" x="-10" y="-10" width="120" height="120"><path d="M40.68 15.23L42.27 6.18L57.73 6.18L59.32 15.23L63.78 16.74L68 18.82L75.52 13.55L86.45 24.48L81.18 32L83.26 36.22L84.77 40.68L93.82 42.27L93.82 57.73L84.77 59.32L83.26 63.78L81.18 68L86.45 75.52L75.52 86.45L68 81.18L63.78 83.26L59.32 84.77L57.73 93.82L42.27 93.82L40.68 84.77L36.22 83.26L32 81.18L24.48 86.45L13.55 75.52L18.82 68L16.74 63.78L15.23 59.32L6.18 57.73L6.18 42.27L15.23 40.68L16.74 36.22L18.82 32L13.55 24.48L24.48 13.55L32 18.82L36.22 16.74Z" fill="#fff" stroke="#fff" stroke-width="5" stroke-linejoin="round"/></mask><g transform="translate(50 50)"><g class="dmd-th-rot"><g transform="translate(-50 -50)"><path d="M40.68 15.23L42.27 6.18L57.73 6.18L59.32 15.23L63.78 16.74L68 18.82L75.52 13.55L86.45 24.48L81.18 32L83.26 36.22L84.77 40.68L93.82 42.27L93.82 57.73L84.77 59.32L83.26 63.78L81.18 68L86.45 75.52L75.52 86.45L68 81.18L63.78 83.26L59.32 84.77L57.73 93.82L42.27 93.82L40.68 84.77L36.22 83.26L32 81.18L24.48 86.45L13.55 75.52L18.82 68L16.74 63.78L15.23 59.32L6.18 57.73L6.18 42.27L15.23 40.68L16.74 36.22L18.82 32L13.55 24.48L24.48 13.55L32 18.82L36.22 16.74Z" fill="#fff" stroke="#fff" stroke-width="16" stroke-linejoin="round"/><g mask="url(#dmd-th-m)"><g transform="translate(50 50)"><g class="dmd-th-crot"><g transform="translate(-50 -50)"><circle cx="50" cy="50" r="48" fill="url(#dmd-th-b)"/><circle cx="50" cy="50" r="48" fill="url(#dmd-th-s)"/></g></g></g></g></g></g></g><clipPath id="dmd-th-c"><path d="M50 12a38 38 0 1 1 0 76a38 38 0 1 1 0 -76Z"/></clipPath><g clip-path="url(#dmd-th-c)"><g class="dmd-th-gl"><rect x="-10" y="-20" width="14" height="140" fill="url(#dmd-th-w)" transform="rotate(20 0 50)"/></g></g><g transform="translate(36 30)"><g class="dmd-th-hi"><g transform="translate(-36 -30)"><path d="M21 30a15 8 0 1 0 30 0a15 8 0 1 0 -30 0Z" fill="url(#dmd-th-h)" opacity=".9"/><path d="M28 29a5 2.6 0 1 0 10 0a5 2.6 0 1 0 -10 0Z" fill="#fff" opacity=".8"/></g></g></g><g transform="translate(50 52)"><g class="dmd-th-fc"><g transform="translate(-50 -52)"><g class="dmd-th-en"><g class="dmd-th-lk"><g transform="translate(50 44.5)"><g class="dmd-th-bl"><g transform="translate(-50 -44.5)"><path d="M31 43.5L44 45.5M69 43.5L56 45.5" fill="none" stroke="#fff" stroke-width="7" stroke-linecap="round" stroke-linejoin="round"/></g></g></g></g></g><g class="dmd-th-mn"><g transform="translate(50 60)"><g class="dmd-th-mo"><g transform="translate(-50 -60)"><path d="M47 60.5L56 58.5" fill="none" stroke="#fff" stroke-width="5" stroke-linecap="round" stroke-linejoin="round"/></g></g></g></g></g></g></g></g></g></g></g></g></g></g></g></g><g class="dmd-th-tb"><circle cx="88" cy="16" r="2.8" fill="#fff" stroke="#E3D9C4" stroke-width="1.2"/><circle cx="95" cy="6" r="4.3" fill="#fff" stroke="#E3D9C4" stroke-width="1.2"/><g filter="url(#dmd-th-f)"><rect x="89" y="-24" width="30" height="21" rx="10.5" fill="#fff"/></g><g transform="translate(97 -13.5)"><g class="dmd-th-dt dmd-th-d0"><circle r="2.3" fill="#ec5f00"/></g></g><g transform="translate(104 -13.5)"><g class="dmd-th-dt dmd-th-d1"><circle r="2.3" fill="#ec5f00"/></g></g><g transform="translate(111 -13.5)"><g class="dmd-th-dt dmd-th-d2"><circle r="2.3" fill="#ec5f00"/></g></g></g>
</svg>
