<svg xmlns="http://www.w3.org/2000/svg" viewBox="-22 -26 144 144" width="288" height="288" role="img" aria-label="Designer: error">
<title>Designer: error</title>
<style>
.dmd-er-hi{animation:dmd-er-hi 4s ease-in-out infinite}
@keyframes dmd-er-hi{0%,100%{transform:scale(1);opacity:.85}50%{transform:scale(1.12,1.06) translate(1px,-.5px);opacity:1}}
.dmd-er-gl{animation:dmd-er-gl 4s ease-in-out infinite -2.6s}
@keyframes dmd-er-gl{0%{transform:translateX(-10px)}28%,100%{transform:translateX(125px)}}
.dmd-er-bl{animation:dmd-er-bl 4s linear infinite -1.8s}
@keyframes dmd-er-bl{0%,22%,28%,70%,76%,82%,100%{transform:scaleY(1)}25%,73%,79%{transform:scaleY(.1)}}
.dmd-er-tl{animation:dmd-er-tl 4s infinite}
@keyframes dmd-er-tl{0%{transform:translateX(0) rotate(-4deg);animation-timing-function:ease-in-out}6.25%{transform:translateX(-6px) rotate(-10deg);animation-timing-function:ease-in-out}11.25%{transform:translateX(5px) rotate(3deg);animation-timing-function:ease-in-out}16.25%{transform:translateX(-4px) rotate(-9deg);animation-timing-function:ease-in-out}21.25%{transform:translateX(2.5px) rotate(0deg);animation-timing-function:ease-in-out}26.25%{transform:translateX(-1px) rotate(-6deg);animation-timing-function:ease-in-out}32.5%{transform:translateX(0) rotate(-4deg);animation-timing-function:ease-in-out}65%{transform:translateX(0) rotate(-6deg);animation-timing-function:ease-in-out}100%{transform:translateX(0) rotate(-4deg)}}
.dmd-er-sq{animation:dmd-er-sq 4s ease-in-out infinite}
@keyframes dmd-er-sq{0%{transform:scale(1.03,.96)}35%{transform:scale(1.02,.97)}60%{transform:scale(1.07,.92)}80%{transform:scale(1.03,.96)}100%{transform:scale(1.03,.96)}}
.dmd-er-lk{animation:dmd-er-lk 4s ease-in-out infinite}
@keyframes dmd-er-lk{0%,30%,100%{transform:translate(0,2px)}45%,80%{transform:translate(2.5px,1px)}}
.dmd-er-brw{animation:dmd-er-brw 2s ease-in-out infinite}
@keyframes dmd-er-brw{0%,100%{transform:translateY(0)}50%{transform:translateY(-1.2px)}}
.dmd-er-sh{animation:dmd-er-sh 4s ease-in-out infinite}
@keyframes dmd-er-sh{0%,100%{transform:scale(1)}10%{transform:scale(.95) translateX(-2px)}20%{transform:scale(.95) translateX(2px)}}
.dmd-er-sw{animation:dmd-er-sw 2s ease-in infinite;opacity:0}
@keyframes dmd-er-sw{0%,15%{transform:translate(0,-2px) scale(.4);opacity:0}30%{transform:translate(0,0) scale(1);opacity:1}75%{opacity:1}95%,100%{transform:translate(1px,12px) scale(.8);opacity:0}}
.dmd-er-q1,.dmd-er-q2{animation:dmd-er-q 4s infinite}.dmd-er-q2{animation-delay:.25s}
@keyframes dmd-er-q{0%{transform:scale(0) rotate(-20deg);opacity:0}22.5%{transform:scale(0) rotate(-20deg);opacity:0;animation-timing-function:cubic-bezier(.3,1.6,.5,1)}32.5%{transform:scale(1) rotate(8deg);opacity:1;animation-timing-function:ease-in-out}50%{transform:scale(1) rotate(-8deg);opacity:1;animation-timing-function:ease-in-out}70%{transform:scale(1) rotate(6deg);opacity:1;animation-timing-function:ease-in}90%{transform:scale(.9) rotate(0) translateY(-4px);opacity:0}100%{transform:scale(0);opacity:0}}
.dmd-er-rot{animation:dmd-er-rot 4s infinite}.dmd-er-crot{animation:dmd-er-crot 4s infinite}
@keyframes dmd-er-rot{0%{transform:rotate(0deg);animation-timing-function:ease-in-out}7.5%{transform:rotate(8deg);animation-timing-function:ease-in-out}11.25%{transform:rotate(-5deg)}15%{transform:rotate(6deg)}18.75%{transform:rotate(-3deg)}22.5%{transform:rotate(2deg)}27.5%{transform:rotate(0deg)}100%{transform:rotate(0deg)}}
@keyframes dmd-er-crot{0%{transform:rotate(0deg);animation-timing-function:ease-in-out}7.5%{transform:rotate(-8deg);animation-timing-function:ease-in-out}11.25%{transform:rotate(5deg)}15%{transform:rotate(-6deg)}18.75%{transform:rotate(3deg)}22.5%{transform:rotate(-2deg)}27.5%{transform:rotate(0deg)}100%{transform:rotate(0deg)}}
@media (prefers-reduced-motion:reduce){*{animation:none!important}}
</style>
<defs><radialGradient id="dmd-er-b" cx=".36" cy=".28" r=".8"><stop offset="0" stop-color="#ff9a3d"/><stop offset=".6" stop-color="#ff7a1c"/><stop offset="1" stop-color="#ec5f00"/></radialGradient><linearGradient id="dmd-er-s" x1="0" y1="0" x2="0" y2="1"><stop offset=".45" stop-color="#0B0F3A" stop-opacity="0"/><stop offset="1" stop-color="#0B0F3A" stop-opacity=".28"/></linearGradient><radialGradient id="dmd-er-h" cx=".5" cy=".5" r=".5"><stop offset="0" stop-color="#fff" stop-opacity=".85"/><stop offset="1" stop-color="#fff" stop-opacity="0"/></radialGradient><radialGradient id="dmd-er-g" cx=".5" cy=".5" r=".5"><stop offset="0" stop-color="#1B2150" stop-opacity=".26"/><stop offset=".6" stop-color="#1B2150" stop-opacity=".12"/><stop offset="1" stop-color="#1B2150" stop-opacity="0"/></radialGradient><linearGradient id="dmd-er-w" x1="0" y1="0" x2="1" y2="0"><stop offset="0" stop-color="#fff" stop-opacity="0"/><stop offset=".5" stop-color="#fff" stop-opacity=".55"/><stop offset="1" stop-color="#fff" stop-opacity="0"/></linearGradient><filter id="dmd-er-f" x="-20%" y="-20%" width="140%" height="140%"><feDropShadow dx="0" dy="1.6" stdDeviation="1.4" flood-color="#141A4A" flood-opacity=".2"/></filter></defs>
<g transform="translate(50 108)"><g class="dmd-er-sh"><g transform="translate(-50 -108)"><ellipse cx="50" cy="108" rx="31" ry="6.2" fill="url(#dmd-er-g)"/></g></g></g><g class="dmd-er-mv"><g class="dmd-er-bob"><g filter="url(#dmd-er-f)"><g transform="translate(50 101)"><g class="dmd-er-sq"><g transform="translate(-50 -101)"><g transform="translate(50 50)"><g class="dmd-er-tl"><g transform="translate(-50 -50)"><mask id="dmd-er-m" maskUnits="userSpaceOnUse" x="-10" y="-10" width="120" height="120"><path d="M40.68 15.23L42.27 6.18L57.73 6.18L59.32 15.23L63.78 16.74L68 18.82L75.52 13.55L86.45 24.48L81.18 32L83.26 36.22L84.77 40.68L93.82 42.27L93.82 57.73L84.77 59.32L83.26 63.78L81.18 68L86.45 75.52L75.52 86.45L68 81.18L63.78 83.26L59.32 84.77L57.73 93.82L42.27 93.82L40.68 84.77L36.22 83.26L32 81.18L24.48 86.45L13.55 75.52L18.82 68L16.74 63.78L15.23 59.32L6.18 57.73L6.18 42.27L15.23 40.68L16.74 36.22L18.82 32L13.55 24.48L24.48 13.55L32 18.82L36.22 16.74Z" fill="#fff" stroke="#fff" stroke-width="5" stroke-linejoin="round"/></mask><g transform="translate(50 50)"><g class="dmd-er-rot"><g transform="translate(-50 -50)"><path d="M40.68 15.23L42.27 6.18L57.73 6.18L59.32 15.23L63.78 16.74L68 18.82L75.52 13.55L86.45 24.48L81.18 32L83.26 36.22L84.77 40.68L93.82 42.27L93.82 57.73L84.77 59.32L83.26 63.78L81.18 68L86.45 75.52L75.52 86.45L68 81.18L63.78 83.26L59.32 84.77L57.73 93.82L42.27 93.82L40.68 84.77L36.22 83.26L32 81.18L24.48 86.45L13.55 75.52L18.82 68L16.74 63.78L15.23 59.32L6.18 57.73L6.18 42.27L15.23 40.68L16.74 36.22L18.82 32L13.55 24.48L24.48 13.55L32 18.82L36.22 16.74Z" fill="#fff" stroke="#fff" stroke-width="16" stroke-linejoin="round"/><g mask="url(#dmd-er-m)"><g transform="translate(50 50)"><g class="dmd-er-crot"><g transform="translate(-50 -50)"><circle cx="50" cy="50" r="48" fill="url(#dmd-er-b)"/><circle cx="50" cy="50" r="48" fill="url(#dmd-er-s)"/></g></g></g></g></g></g></g><clipPath id="dmd-er-c"><path d="M50 12a38 38 0 1 1 0 76a38 38 0 1 1 0 -76Z"/></clipPath><g clip-path="url(#dmd-er-c)"><g class="dmd-er-gl"><rect x="-10" y="-20" width="14" height="140" fill="url(#dmd-er-w)" transform="rotate(20 0 50)"/></g></g><g transform="translate(36 30)"><g class="dmd-er-hi"><g transform="translate(-36 -30)"><path d="M21 30a15 8 0 1 0 30 0a15 8 0 1 0 -30 0Z" fill="url(#dmd-er-h)" opacity=".9"/><path d="M28 29a5 2.6 0 1 0 10 0a5 2.6 0 1 0 -10 0Z" fill="#fff" opacity=".8"/></g></g></g><g transform="translate(50 52)"><g class="dmd-er-fc"><g transform="translate(-50 -52)"><g class="dmd-er-en"><g class="dmd-er-lk"><g transform="translate(50 44.5)"><g class="dmd-er-bl"><g transform="translate(-50 -44.5)"><path d="M31 43.5L44 45.5M69 43.5L56 45.5" fill="none" stroke="#fff" stroke-width="7" stroke-linecap="round" stroke-linejoin="round"/></g></g></g><g class="dmd-er-brw"><path d="M31.5 36.5L42.5 32.5M68.5 36.5L57.5 32.5" fill="none" stroke="#fff" stroke-width="4.5" stroke-linecap="round" stroke-linejoin="round"/></g></g></g><g class="dmd-er-mn"><g transform="translate(50 60)"><g class="dmd-er-mo"><g transform="translate(-50 -60)"><path d="M43 63Q50 56 57 63" fill="none" stroke="#fff" stroke-width="5" stroke-linecap="round" stroke-linejoin="round"/></g></g></g></g></g></g></g><g transform="translate(82 18) scale(1.2)"><g class="dmd-er-sw"><path d="M0 -5C1.5 -2.5 3.2 -.6 3.2 1.6A3.2 3.2 0 0 1 -3.2 1.6C-3.2 -.6 -1.5 -2.5 0 -5Z" fill="#9fd4ff" stroke="#fff" stroke-width="1.6"/><circle cx="-1" cy="1" r=".9" fill="#fff"/></g></g></g></g></g></g></g></g></g></g></g><g transform="translate(98 -2) scale(1.5)"><g class="dmd-er-q1"><path d="M-3.4 -4.2Q-3.4 -8 .2 -8Q3.8 -8 3.8 -4.6Q3.8 -2.2 1 -.9Q0 -.3 0 1.6" fill="none" stroke="#fff" stroke-width="6" stroke-linecap="round" stroke-linejoin="round"/><circle cx="0" cy="5.4" r="3" fill="#fff"/><path d="M-3.4 -4.2Q-3.4 -8 .2 -8Q3.8 -8 3.8 -4.6Q3.8 -2.2 1 -.9Q0 -.3 0 1.6" fill="none" stroke="#141413" stroke-width="2.6" stroke-linecap="round" stroke-linejoin="round"/><circle cx="0" cy="5.4" r="1.6" fill="#141413"/></g></g><g transform="translate(112 16)"><g class="dmd-er-q2"><path d="M-3.4 -4.2Q-3.4 -8 .2 -8Q3.8 -8 3.8 -4.6Q3.8 -2.2 1 -.9Q0 -.3 0 1.6" fill="none" stroke="#fff" stroke-width="6" stroke-linecap="round" stroke-linejoin="round"/><circle cx="0" cy="5.4" r="3" fill="#fff"/><path d="M-3.4 -4.2Q-3.4 -8 .2 -8Q3.8 -8 3.8 -4.6Q3.8 -2.2 1 -.9Q0 -.3 0 1.6" fill="none" stroke="#141413" stroke-width="2.6" stroke-linecap="round" stroke-linejoin="round"/><circle cx="0" cy="5.4" r="1.6" fill="#141413"/></g></g>
</svg>
