<svg xmlns="http://www.w3.org/2000/svg" viewBox="-22 -26 144 144" width="288" height="288" role="img" aria-label="Experimenter: tapped-loop">
<title>Experimenter: tapped-loop</title>
<style>
.dmx-tl-sq{animation:dmx-tl-sq 2.4s infinite}
@keyframes dmx-tl-sq{0%{transform:translateY(0) scale(1,1);animation-timing-function:ease-out}4.17%{transform:translateY(1px) scale(1.16,.8);animation-timing-function:cubic-bezier(.2,.8,.4,1)}13.33%{transform:translateY(-10.8px) scale(0.91,1.11);animation-timing-function:ease-out}20.83%{transform:translateY(-13.2px) scale(1,1);animation-timing-function:ease-in}29.17%{transform:translateY(0) scale(1.1,.9);animation-timing-function:ease-out}35%{transform:translateY(-1.8px) scale(.96,1.05);animation-timing-function:ease-in-out}41.67%{transform:translateY(0) scale(1.03,.97);animation-timing-function:ease-in-out}50%{transform:translateY(0) scale(1,1)}100%{transform:translateY(0) scale(1,1)}}
.dmx-tl-sh{animation:dmx-tl-sh 2.4s infinite}
@keyframes dmx-tl-sh{0%{transform:scale(1);opacity:1}4.17%{transform:scale(1.12);opacity:1}20.83%{transform:scale(.6);opacity:.4}29.17%{transform:scale(1.1);opacity:1}41.67%{transform:scale(1)}100%{transform:scale(1);opacity:1}}
.dmx-tl-en{animation:dmx-tl-en 2.4s infinite}
.dmx-tl-mn{animation:dmx-tl-en 2.4s infinite}
@keyframes dmx-tl-en{0%{opacity:1}3.33%{opacity:1}4.17%{opacity:0}46.67%{opacity:0}48.33%{opacity:1}100%{opacity:1}}
.dmx-tl-eh{animation:dmx-tl-eh 2.4s infinite}
.dmx-tl-mh{animation:dmx-tl-eh 2.4s infinite}
.dmx-tl-eh,.dmx-tl-mh{opacity:0}
@keyframes dmx-tl-eh{0%{opacity:0}3.33%{opacity:0}4.17%{opacity:1}46.67%{opacity:1}48.33%{opacity:0}100%{opacity:0}}
.dmx-tl-ck{animation:dmx-tl-ck 2.4s infinite}
.dmx-tl-ck{opacity:0}
@keyframes dmx-tl-ck{0%{opacity:0}4.17%{opacity:0}10.42%{opacity:.75}45.83%{opacity:.75}54.17%{opacity:0}100%{opacity:0}}
.dmx-tl-ht{opacity:0}.dmx-tl-h1{animation:dmx-tl-h1 2.4s infinite;animation-delay:0.06s}
.dmx-tl-h2{animation:dmx-tl-h2 2.4s infinite;animation-delay:0.12s}
.dmx-tl-h3{animation:dmx-tl-h3 2.4s infinite;animation-delay:0s}
.dmx-tl-h4{animation:dmx-tl-h4 2.4s infinite;animation-delay:0.06s}
.dmx-tl-h5{animation:dmx-tl-h5 2.4s infinite;animation-delay:0.12s}
@keyframes dmx-tl-h1{0%{transform:translate(0,0) scale(0);opacity:0}10.42%{transform:translate(0,0) scale(0);opacity:0;animation-timing-function:cubic-bezier(.2,.9,.3,1.3)}20%{transform:translate(-8.4px,-14.399999999999999px) scale(1.15);opacity:1;animation-timing-function:ease-out}41.67%{transform:translate(-14px,-24px) scale(.9);opacity:.9;animation-timing-function:ease-in}52.08%{transform:translate(-15.400000000000002px,-28.799999999999997px) scale(.6);opacity:0}100%{transform:translate(-14px,-24px) scale(0);opacity:0}}
@keyframes dmx-tl-h2{0%{transform:translate(0,0) scale(0);opacity:0}22.92%{transform:translate(0,0) scale(0);opacity:0;animation-timing-function:cubic-bezier(.2,.9,.3,1.3)}31.25%{transform:translate(0px,-10.799999999999999px) scale(1.15);opacity:1;animation-timing-function:ease-out}41.67%{transform:translate(0px,-18px) scale(.9);opacity:.9;animation-timing-function:ease-in}52.08%{transform:translate(0px,-21.599999999999998px) scale(.6);opacity:0}100%{transform:translate(0px,-18px) scale(0);opacity:0}}
@keyframes dmx-tl-h3{0%{transform:translate(0,0) scale(0);opacity:0}10.42%{transform:translate(0,0) scale(0);opacity:0;animation-timing-function:cubic-bezier(.2,.9,.3,1.3)}20%{transform:translate(8.4px,-14.399999999999999px) scale(1.15);opacity:1;animation-timing-function:ease-out}41.67%{transform:translate(14px,-24px) scale(.9);opacity:.9;animation-timing-function:ease-in}52.08%{transform:translate(15.400000000000002px,-28.799999999999997px) scale(.6);opacity:0}100%{transform:translate(14px,-24px) scale(0);opacity:0}}
@keyframes dmx-tl-h4{0%{transform:translate(0,0) scale(0);opacity:0}10.42%{transform:translate(0,0) scale(0);opacity:0;animation-timing-function:cubic-bezier(.2,.9,.3,1.3)}20%{transform:translate(-7.199999999999999px,-3.5999999999999996px) scale(1.15);opacity:1;animation-timing-function:ease-out}41.67%{transform:translate(-12px,-6px) scale(.9);opacity:.9;animation-timing-function:ease-in}52.08%{transform:translate(-13.200000000000001px,-7.199999999999999px) scale(.6);opacity:0}100%{transform:translate(-12px,-6px) scale(0);opacity:0}}
@keyframes dmx-tl-h5{0%{transform:translate(0,0) scale(0);opacity:0}10.42%{transform:translate(0,0) scale(0);opacity:0;animation-timing-function:cubic-bezier(.2,.9,.3,1.3)}20%{transform:translate(7.199999999999999px,-4.8px) scale(1.15);opacity:1;animation-timing-function:ease-out}41.67%{transform:translate(12px,-8px) scale(.9);opacity:.9;animation-timing-function:ease-in}52.08%{transform:translate(13.200000000000001px,-9.6px) scale(.6);opacity:0}100%{transform:translate(12px,-8px) scale(0);opacity:0}}
.dmx-tl-hi{animation:dmx-tl-hi 4s ease-in-out infinite}
@keyframes dmx-tl-hi{0%,100%{transform:scale(1);opacity:.85}50%{transform:scale(1.12,1.06) translate(1px,-.5px);opacity:1}}
.dmx-tl-gl{animation:dmx-tl-gl 4s ease-in-out infinite -3.2s}
@keyframes dmx-tl-gl{0%{transform:translateX(-10px)}28%,100%{transform:translateX(125px)}}
.dmx-tl-tl{animation:dmx-tl-tl 2.4s infinite}@keyframes dmx-tl-tl{0%{transform:skewX(0) scale(1,1)}29.17%{transform:skewX(0) scale(1,1)}33.33%{transform:skewX(9deg) scale(1.06,.95)}38.33%{transform:skewX(-7deg) scale(.96,1.04)}43.33%{transform:skewX(4deg) scale(1.02,.98)}48.33%{transform:skewX(-2deg)}54.17%{transform:skewX(0) scale(1,1)}100%{transform:skewX(0) scale(1,1)}}
@media (prefers-reduced-motion:reduce){*{animation:none!important}}
</style>
<defs><radialGradient id="dmx-tl-b" cx=".36" cy=".28" r=".8"><stop offset="0" stop-color="#ff8fc4"/><stop offset=".6" stop-color="#f0579e"/><stop offset="1" stop-color="#d63a84"/></radialGradient><linearGradient id="dmx-tl-s" x1="0" y1="0" x2="0" y2="1"><stop offset=".45" stop-color="#0B0F3A" stop-opacity="0"/><stop offset="1" stop-color="#0B0F3A" stop-opacity=".28"/></linearGradient><radialGradient id="dmx-tl-h" cx=".5" cy=".5" r=".5"><stop offset="0" stop-color="#fff" stop-opacity=".85"/><stop offset="1" stop-color="#fff" stop-opacity="0"/></radialGradient><radialGradient id="dmx-tl-g" cx=".5" cy=".5" r=".5"><stop offset="0" stop-color="#1B2150" stop-opacity=".26"/><stop offset=".6" stop-color="#1B2150" stop-opacity=".12"/><stop offset="1" stop-color="#1B2150" stop-opacity="0"/></radialGradient><linearGradient id="dmx-tl-w" x1="0" y1="0" x2="1" y2="0"><stop offset="0" stop-color="#fff" stop-opacity="0"/><stop offset=".5" stop-color="#fff" stop-opacity=".55"/><stop offset="1" stop-color="#fff" stop-opacity="0"/></linearGradient><filter id="dmx-tl-f" x="-20%" y="-20%" width="140%" height="140%"><feDropShadow dx="0" dy="1.6" stdDeviation="1.4" flood-color="#141A4A" flood-opacity=".2"/></filter></defs>
<g transform="translate(50 108)"><g class="dmx-tl-sh"><g transform="translate(-50 -108)"><ellipse cx="50" cy="108" rx="32" ry="6.4" fill="url(#dmx-tl-g)"/></g></g></g><g class="dmx-tl-mv"><g class="dmx-tl-bob"><g filter="url(#dmx-tl-f)"><g transform="translate(50 101.5)"><g class="dmx-tl-sq"><g transform="translate(-50 -101.5)"><g transform="translate(50 96)"><g class="dmx-tl-tl"><g transform="translate(-50 -96)"><path d="M50 6C62 6 71 22 79 36C88 52 92 64 88 76C84 88 70 96 50 96C30 96 16 88 12 76C8 64 12 52 21 36C29 22 38 6 50 6Z" fill="#fff" stroke="#fff" stroke-width="11" stroke-linejoin="round"/><path d="M50 6C62 6 71 22 79 36C88 52 92 64 88 76C84 88 70 96 50 96C30 96 16 88 12 76C8 64 12 52 21 36C29 22 38 6 50 6Z" fill="url(#dmx-tl-b)"/><path d="M50 6C62 6 71 22 79 36C88 52 92 64 88 76C84 88 70 96 50 96C30 96 16 88 12 76C8 64 12 52 21 36C29 22 38 6 50 6Z" fill="url(#dmx-tl-s)"/><clipPath id="dmx-tl-c"><path d="M50 6C62 6 71 22 79 36C88 52 92 64 88 76C84 88 70 96 50 96C30 96 16 88 12 76C8 64 12 52 21 36C29 22 38 6 50 6Z"/></clipPath><g clip-path="url(#dmx-tl-c)"><g class="dmx-tl-gl"><rect x="-10" y="-20" width="14" height="140" fill="url(#dmx-tl-w)" transform="rotate(20 0 50)"/></g></g><g transform="translate(40 34)"><g class="dmx-tl-hi"><g transform="translate(-40 -34)"><path d="M25 34a15 8 0 1 0 30 0a15 8 0 1 0 -30 0Z" fill="url(#dmx-tl-h)" opacity=".9"/><path d="M32 33a5 2.6 0 1 0 10 0a5 2.6 0 1 0 -10 0Z" fill="#fff" opacity=".8"/></g></g></g><g transform="translate(50 60)"><g class="dmx-tl-fc"><g transform="translate(-50 -60)"><g class="dmx-tl-en"><g class="dmx-tl-lk"><g transform="translate(50 56)"><g class="dmx-tl-bl"><g transform="translate(-50 -56)"><path d="M37 47.5a8.5 8.5 0 1 1 0 17a8.5 8.5 0 1 1 0 -17ZM63 47.5a8.5 8.5 0 1 1 0 17a8.5 8.5 0 1 1 0 -17Z" fill="#fff"/><g class="dmx-tl-pu"><path d="M39 49.5a4 4 0 1 1 0 8a4 4 0 1 1 0 -8ZM65 49.5a4 4 0 1 1 0 8a4 4 0 1 1 0 -8Z" fill="#5a0f33"/></g></g></g></g></g></g><g class="dmx-tl-eh"><g class="dmx-tl-lk"><path d="M30 58Q37 49 44 58M56 58Q63 49 70 58" fill="none" stroke="#fff" stroke-width="5.5" stroke-linecap="round" stroke-linejoin="round"/></g></g><g class="dmx-tl-mn"><g transform="translate(50 76)"><g class="dmx-tl-mo"><g transform="translate(-50 -76)"><path d="M50 71.5a4.5 4.5 0 1 1 0 9a4.5 4.5 0 1 1 0 -9Z" fill="#fff"/></g></g></g></g><g class="dmx-tl-mh"><g transform="translate(50 76)"><g class="dmx-tl-mo"><g transform="translate(-50 -76)"><clipPath id="dmx-tl-mc"><path d="M41 73H59A9 9 0 0 1 41 73Z"/></clipPath><path d="M41 73H59A9 9 0 0 1 41 73Z" fill="#fff" stroke="#fff" stroke-width="2" stroke-linejoin="round"/><ellipse cx="50" cy="81" rx="5" ry="3" fill="#ff6f9c" clip-path="url(#dmx-tl-mc)"/></g></g></g></g><g class="dmx-tl-ck" opacity="1"><ellipse cx="24" cy="69" rx="6" ry="3.6" fill="#c2186b"/><ellipse cx="76" cy="69" rx="6" ry="3.6" fill="#c2186b"/></g></g></g></g></g></g></g></g></g></g></g></g></g><g transform="translate(14 30)"><g class="dmx-tl-ht dmx-tl-h1"><path d="M0 4C-1.2 3 -6.5 -.2 -6.5 -3.4C-6.5 -6.2 -3.2 -7.4 0 -4.6C3.2 -7.4 6.5 -6.2 6.5 -3.4C6.5 -.2 1.2 3 0 4Z" fill="#ff5c93" stroke="#fff" stroke-width="1.8"/></g></g><g transform="translate(50 -4) scale(1.25)"><g class="dmx-tl-ht dmx-tl-h2"><path d="M0 4C-1.2 3 -6.5 -.2 -6.5 -3.4C-6.5 -6.2 -3.2 -7.4 0 -4.6C3.2 -7.4 6.5 -6.2 6.5 -3.4C6.5 -.2 1.2 3 0 4Z" fill="#ff5c93" stroke="#fff" stroke-width="1.8"/></g></g><g transform="translate(86 30)"><g class="dmx-tl-ht dmx-tl-h3"><path d="M0 4C-1.2 3 -6.5 -.2 -6.5 -3.4C-6.5 -6.2 -3.2 -7.4 0 -4.6C3.2 -7.4 6.5 -6.2 6.5 -3.4C6.5 -.2 1.2 3 0 4Z" fill="#ff5c93" stroke="#fff" stroke-width="1.8"/></g></g><g transform="translate(2 56)"><g class="dmx-tl-ht dmx-tl-h4"><path d="M0 -7Q.8 -.8 7 0Q.8 .8 0 7Q-.8 .8 -7 0Q-.8 -.8 0 -7Z" fill="#F6D76B" stroke="#fff" stroke-width="1.2"/></g></g><g transform="translate(98 56)"><g class="dmx-tl-ht dmx-tl-h5"><path d="M0 -7Q.8 -.8 7 0Q.8 .8 0 7Q-.8 .8 -7 0Q-.8 -.8 0 -7Z" fill="#fff" stroke="#f0579e" stroke-width="1.2"/></g></g>
</svg>
