<svg xmlns="http://www.w3.org/2000/svg" viewBox="-22 -26 144 144" width="288" height="288" role="img" aria-label="Experimenter: working">
<title>Experimenter: working</title>
<style>
.dmx-wo-hi{animation:dmx-wo-hi 4s ease-in-out infinite}
@keyframes dmx-wo-hi{0%,100%{transform:scale(1);opacity:.85}50%{transform:scale(1.12,1.06) translate(1px,-.5px);opacity:1}}
.dmx-wo-gl{animation:dmx-wo-gl 4s ease-in-out infinite -1s}
@keyframes dmx-wo-gl{0%{transform:translateX(-10px)}28%,100%{transform:translateX(125px)}}
.dmx-wo-bl{animation:dmx-wo-bl 4s linear infinite}
@keyframes dmx-wo-bl{0%,46%,52%,100%{transform:scaleY(1)}49%{transform:scaleY(.1)}}
.dmx-wo-bob{animation:dmx-wo-bob .5s ease-in-out infinite}
@keyframes dmx-wo-bob{0%,100%{transform:translateY(0)}50%{transform:translateY(-2px)}}
.dmx-wo-sq{animation:dmx-wo-sq .5s ease-in-out infinite}
@keyframes dmx-wo-sq{0%,100%{transform:scale(1.025,.975)}50%{transform:scale(.99,1.01)}}
.dmx-wo-sh{animation:dmx-wo-sh .5s ease-in-out infinite}
@keyframes dmx-wo-sh{0%,100%{transform:scale(1)}50%{transform:scale(.93)}}
.dmx-wo-sw{animation:dmx-wo-sw 2s ease-in infinite;opacity:0}
@keyframes dmx-wo-sw{0%,20%{transform:translate(0,-2px) scale(.4);opacity:0}32%{transform:translate(0,0) scale(1);opacity:1}75%{opacity:1}95%,100%{transform:translate(1px,12px) scale(.8);opacity:0}}
.dmx-wo-tl{animation:dmx-wo-tl 1s ease-in-out infinite}
@keyframes dmx-wo-tl{0%,100%{transform:rotate(-4deg) skewX(3deg)}50%{transform:rotate(4deg) skewX(-3deg)}}
.dmx-wo-pu{transform:translate(-1px,3px)}
.dmx-wo-bu{animation:dmx-wo-bu 1.333s ease-out infinite;opacity:0}
@keyframes dmx-wo-bu{0%{transform:translate(0,6px) scale(.3);opacity:0}15%{opacity:1}50%{transform:translate(3px,-10px) scale(1)}80%{opacity:.9}100%{transform:translate(-2px,-26px) scale(1.15);opacity:0}}
@media (prefers-reduced-motion:reduce){*{animation:none!important}}
</style>
<defs><radialGradient id="dmx-wo-b" cx=".36" cy=".28" r=".8"><stop offset="0" stop-color="#ff8fc4"/><stop offset=".6" stop-color="#f0579e"/><stop offset="1" stop-color="#d63a84"/></radialGradient><linearGradient id="dmx-wo-s" x1="0" y1="0" x2="0" y2="1"><stop offset=".45" stop-color="#0B0F3A" stop-opacity="0"/><stop offset="1" stop-color="#0B0F3A" stop-opacity=".28"/></linearGradient><radialGradient id="dmx-wo-h" cx=".5" cy=".5" r=".5"><stop offset="0" stop-color="#fff" stop-opacity=".85"/><stop offset="1" stop-color="#fff" stop-opacity="0"/></radialGradient><radialGradient id="dmx-wo-g" cx=".5" cy=".5" r=".5"><stop offset="0" stop-color="#1B2150" stop-opacity=".26"/><stop offset=".6" stop-color="#1B2150" stop-opacity=".12"/><stop offset="1" stop-color="#1B2150" stop-opacity="0"/></radialGradient><linearGradient id="dmx-wo-w" x1="0" y1="0" x2="1" y2="0"><stop offset="0" stop-color="#fff" stop-opacity="0"/><stop offset=".5" stop-color="#fff" stop-opacity=".55"/><stop offset="1" stop-color="#fff" stop-opacity="0"/></linearGradient><filter id="dmx-wo-f" x="-20%" y="-20%" width="140%" height="140%"><feDropShadow dx="0" dy="1.6" stdDeviation="1.4" flood-color="#141A4A" flood-opacity=".2"/></filter></defs>
<g transform="translate(50 108)"><g class="dmx-wo-sh"><g transform="translate(-50 -108)"><ellipse cx="50" cy="108" rx="32" ry="6.4" fill="url(#dmx-wo-g)"/></g></g></g><g class="dmx-wo-mv"><g class="dmx-wo-bob"><g filter="url(#dmx-wo-f)"><g transform="translate(50 101.5)"><g class="dmx-wo-sq"><g transform="translate(-50 -101.5)"><g transform="translate(50 96)"><g class="dmx-wo-tl"><g transform="translate(-50 -96)"><path d="M50 6C62 6 71 22 79 36C88 52 92 64 88 76C84 88 70 96 50 96C30 96 16 88 12 76C8 64 12 52 21 36C29 22 38 6 50 6Z" fill="#fff" stroke="#fff" stroke-width="11" stroke-linejoin="round"/><path d="M50 6C62 6 71 22 79 36C88 52 92 64 88 76C84 88 70 96 50 96C30 96 16 88 12 76C8 64 12 52 21 36C29 22 38 6 50 6Z" fill="url(#dmx-wo-b)"/><path d="M50 6C62 6 71 22 79 36C88 52 92 64 88 76C84 88 70 96 50 96C30 96 16 88 12 76C8 64 12 52 21 36C29 22 38 6 50 6Z" fill="url(#dmx-wo-s)"/><clipPath id="dmx-wo-c"><path d="M50 6C62 6 71 22 79 36C88 52 92 64 88 76C84 88 70 96 50 96C30 96 16 88 12 76C8 64 12 52 21 36C29 22 38 6 50 6Z"/></clipPath><g clip-path="url(#dmx-wo-c)"><g class="dmx-wo-gl"><rect x="-10" y="-20" width="14" height="140" fill="url(#dmx-wo-w)" transform="rotate(20 0 50)"/></g></g><g transform="translate(40 34)"><g class="dmx-wo-hi"><g transform="translate(-40 -34)"><path d="M25 34a15 8 0 1 0 30 0a15 8 0 1 0 -30 0Z" fill="url(#dmx-wo-h)" opacity=".9"/><path d="M32 33a5 2.6 0 1 0 10 0a5 2.6 0 1 0 -10 0Z" fill="#fff" opacity=".8"/></g></g></g><g transform="translate(50 60)"><g class="dmx-wo-fc"><g transform="translate(-50 -60)"><g class="dmx-wo-en"><g class="dmx-wo-lk"><g transform="translate(0 25.2) scale(1 0.55)"><g transform="translate(50 56)"><g class="dmx-wo-bl"><g transform="translate(-50 -56)"><path d="M37 47.5a8.5 8.5 0 1 1 0 17a8.5 8.5 0 1 1 0 -17ZM63 47.5a8.5 8.5 0 1 1 0 17a8.5 8.5 0 1 1 0 -17Z" fill="#fff"/><g class="dmx-wo-pu"><path d="M39 49.5a4 4 0 1 1 0 8a4 4 0 1 1 0 -8ZM65 49.5a4 4 0 1 1 0 8a4 4 0 1 1 0 -8Z" fill="#5a0f33"/></g></g></g></g></g></g></g><g class="dmx-wo-mn"><g transform="translate(50 76)"><g class="dmx-wo-mo"><g transform="translate(-50 -76)"><path d="M44 76Q47 73.5 50 76Q53 78.5 56 76" fill="none" stroke="#fff" stroke-width="4.5" stroke-linecap="round" stroke-linejoin="round"/></g></g></g></g></g></g></g><g transform="translate(74 26) scale(1.2)"><g class="dmx-wo-sw"><path d="M0 -5C1.5 -2.5 3.2 -.6 3.2 1.6A3.2 3.2 0 0 1 -3.2 1.6C-3.2 -.6 -1.5 -2.5 0 -5Z" fill="#9fd4ff" stroke="#fff" stroke-width="1.6"/><circle cx="-1" cy="1" r=".9" fill="#fff"/></g></g></g></g></g></g></g></g></g></g></g><g transform="translate(86 30)"><g class="dmx-wo-bu" style="animation-delay:0s"><circle r="5" fill="#ffd3e8" fill-opacity=".75" stroke="#f0579e" stroke-width="1.3"/><circle cx="-1.75" cy="-1.75" r="1.5" fill="#fff"/></g></g><g transform="translate(94 16)"><g class="dmx-wo-bu" style="animation-delay:-0.444s"><circle r="3.4" fill="#ffd3e8" fill-opacity=".75" stroke="#f0579e" stroke-width="1.3"/><circle cx="-1.19" cy="-1.19" r="1.02" fill="#fff"/></g></g><g transform="translate(12 28)"><g class="dmx-wo-bu" style="animation-delay:-0.888s"><circle r="3.8" fill="#ffd3e8" fill-opacity=".75" stroke="#f0579e" stroke-width="1.3"/><circle cx="-1.3299999999999998" cy="-1.3299999999999998" r="1.14" fill="#fff"/></g></g><g transform="translate(80 12)"><g class="dmx-wo-bu" style="animation-delay:-1.332s"><circle r="2.8" fill="#ffd3e8" fill-opacity=".75" stroke="#f0579e" stroke-width="1.3"/><circle cx="-0.9799999999999999" cy="-0.9799999999999999" r="0.84" fill="#fff"/></g></g><g transform="translate(18 12)"><g class="dmx-wo-bu" style="animation-delay:-1.776s"><circle r="3" fill="#ffd3e8" fill-opacity=".75" stroke="#f0579e" stroke-width="1.3"/><circle cx="-1.0499999999999998" cy="-1.0499999999999998" r="0.8999999999999999" fill="#fff"/></g></g><g transform="translate(100 34)"><g class="dmx-wo-bu" style="animation-delay:-2.22s"><circle r="2.4" fill="#ffd3e8" fill-opacity=".75" stroke="#f0579e" stroke-width="1.3"/><circle cx="-0.84" cy="-0.84" r="0.72" fill="#fff"/></g></g>
</svg>
