<svg xmlns="http://www.w3.org/2000/svg" viewBox="-22 -26 144 144" width="288" height="288" role="img" aria-label="Darwin: thinking">
<title>Darwin: thinking</title>
<style>
.dmr-th-hi{animation:dmr-th-hi 4s ease-in-out infinite}
@keyframes dmr-th-hi{0%,100%{transform:scale(1);opacity:.85}50%{transform:scale(1.12,1.06) translate(1px,-.5px);opacity:1}}
.dmr-th-gl{animation:dmr-th-gl 4s ease-in-out infinite -2s}
@keyframes dmr-th-gl{0%{transform:translateX(-10px)}28%,100%{transform:translateX(125px)}}
.dmr-th-bl{animation:dmr-th-bl 4s linear infinite -1s}
@keyframes dmr-th-bl{0%,22%,28%,70%,76%,82%,100%{transform:scaleY(1)}25%,73%,79%{transform:scaleY(.1)}}
.dmr-th-bob{animation:dmr-th-bob 4s ease-in-out infinite}
@keyframes dmr-th-bob{0%,100%{transform:translateY(0)}50%{transform:translateY(-3px)}}
.dmr-th-sh{animation:dmr-th-sh 4s ease-in-out infinite}
@keyframes dmr-th-sh{0%,100%{transform:scale(1)}50%{transform:scale(.92)}}
.dmr-th-tl{animation:dmr-th-tl 4s ease-in-out infinite}
@keyframes dmr-th-tl{0%,100%{transform:rotate(5deg)}50%{transform:rotate(8deg)}}
.dmr-th-lk{animation:dmr-th-lk 4s ease-in-out infinite}
@keyframes dmr-th-lk{0%,100%{transform:translate(3.5px,-4px)}30%{transform:translate(4.5px,-4.5px)}60%{transform:translate(1.5px,-4px)}}
.dmr-th-mo{animation:dmr-th-mo 2s ease-in-out infinite}
@keyframes dmr-th-mo{0%,100%{transform:translateX(0)}50%{transform:translateX(-2px) rotate(-6deg)}}
.dmr-th-tb{animation:dmr-th-tb 4s ease-in-out infinite}
@keyframes dmr-th-tb{0%,100%{transform:translateY(0)}50%{transform:translateY(-1.5px)}}
.dmr-th-dt{animation:dmr-th-dt 1.333s ease-in-out infinite}.dmr-th-d1{animation-delay:.18s}.dmr-th-d2{animation-delay:.36s}
@keyframes dmr-th-dt{0%,60%,100%{transform:translateY(0);opacity:.35}25%{transform:translateY(-3px);opacity:1}}
.dmr-th-cr{animation:dmr-th-cr 4s infinite}@keyframes dmr-th-cr{0%{transform:rotate(-8deg);animation-timing-function:ease-in-out}50%{transform:rotate(-12deg) translateY(-1px);animation-timing-function:ease-in-out}100%{transform:rotate(-8deg)}}
.dmr-th-pu{transform:translate(-4px,-3px)}
@media (prefers-reduced-motion:reduce){*{animation:none!important}}
</style>
<defs><radialGradient id="dmr-th-b" cx=".36" cy=".28" r=".8"><stop offset="0" stop-color="#FF7A7A"/><stop offset=".6" stop-color="#E23B3B"/><stop offset="1" stop-color="#B81F2E"/></radialGradient><linearGradient id="dmr-th-s" x1="0" y1="0" x2="0" y2="1"><stop offset=".45" stop-color="#0B0F3A" stop-opacity="0"/><stop offset="1" stop-color="#0B0F3A" stop-opacity=".28"/></linearGradient><radialGradient id="dmr-th-h" cx=".5" cy=".5" r=".5"><stop offset="0" stop-color="#fff" stop-opacity=".85"/><stop offset="1" stop-color="#fff" stop-opacity="0"/></radialGradient><radialGradient id="dmr-th-g" cx=".5" cy=".5" r=".5"><stop offset="0" stop-color="#1B2150" stop-opacity=".26"/><stop offset=".6" stop-color="#1B2150" stop-opacity=".12"/><stop offset="1" stop-color="#1B2150" stop-opacity="0"/></radialGradient><linearGradient id="dmr-th-w" x1="0" y1="0" x2="1" y2="0"><stop offset="0" stop-color="#fff" stop-opacity="0"/><stop offset=".5" stop-color="#fff" stop-opacity=".55"/><stop offset="1" stop-color="#fff" stop-opacity="0"/></linearGradient><filter id="dmr-th-f" x="-20%" y="-20%" width="140%" height="140%"><feDropShadow dx="0" dy="1.6" stdDeviation="1.4" flood-color="#141A4A" flood-opacity=".2"/></filter></defs>
<g transform="translate(50 108)"><g class="dmr-th-sh"><g transform="translate(-50 -108)"><ellipse cx="50" cy="108" rx="30" ry="6" fill="url(#dmr-th-g)"/></g></g></g><g class="dmr-th-mv"><g class="dmr-th-bob"><g filter="url(#dmr-th-f)"><g transform="translate(50 101.5)"><g class="dmr-th-sq"><g transform="translate(-50 -101.5)"><g transform="translate(50 56)"><g class="dmr-th-tl"><g transform="translate(-50 -56)"><g transform="translate(50 101.5) scale(0.92) translate(-50 -101.5)"><radialGradient id="dmr-th-cg" cx=".36" cy=".3" r=".8"><stop offset="0" stop-color="#fff0a8"/><stop offset=".55" stop-color="#f6c343"/><stop offset="1" stop-color="#d9951a"/></radialGradient><path d="M50 16C80 16 94 28 94 57C94 85 79 96 50 96C21 96 6 85 6 57C6 28 20 16 50 16Z" fill="#fff" stroke="#fff" stroke-width="11" stroke-linejoin="round"/><g transform="rotate(-12 51 21)"><g transform="translate(51 21)"><g class="dmr-th-cr"><g transform="translate(-51 -21)"><path d="M34 21L31 3L42 11L51 -4L60 11L71 3L68 21ZM31 0a3 3 0 1 1 0 6a3 3 0 1 1 0 -6ZM51 -7.4a3.4 3.4 0 1 1 0 6.8a3.4 3.4 0 1 1 0 -6.8ZM71 0a3 3 0 1 1 0 6a3 3 0 1 1 0 -6Z" fill="#fff" stroke="#fff" stroke-width="10" stroke-linejoin="round"/></g></g></g></g><path d="M50 16C80 16 94 28 94 57C94 85 79 96 50 96C21 96 6 85 6 57C6 28 20 16 50 16Z" fill="url(#dmr-th-b)"/><path d="M50 16C80 16 94 28 94 57C94 85 79 96 50 96C21 96 6 85 6 57C6 28 20 16 50 16Z" fill="url(#dmr-th-s)"/><clipPath id="dmr-th-c"><path d="M50 16C80 16 94 28 94 57C94 85 79 96 50 96C21 96 6 85 6 57C6 28 20 16 50 16Z"/></clipPath><g clip-path="url(#dmr-th-c)"><g class="dmr-th-gl"><rect x="-10" y="-20" width="14" height="140" fill="url(#dmr-th-w)" transform="rotate(20 0 50)"/></g></g><g transform="translate(34 32)"><g class="dmr-th-hi"><g transform="translate(-34 -32)"><path d="M19 32a15 8 0 1 0 30 0a15 8 0 1 0 -30 0Z" fill="url(#dmr-th-h)" opacity=".9"/><path d="M26 31a5 2.6 0 1 0 10 0a5 2.6 0 1 0 -10 0Z" fill="#fff" opacity=".8"/></g></g></g><g transform="rotate(-12 51 21)"><g transform="translate(51 21)"><g class="dmr-th-cr"><g transform="translate(-51 -21)"><path d="M34 21L31 3L42 11L51 -4L60 11L71 3L68 21Z" fill="url(#dmr-th-cg)" stroke="#fff" stroke-width="4" stroke-linejoin="round"/><path d="M34 21L31 3L42 11L51 -4L60 11L71 3L68 21Z" fill="none" stroke="#c98a14" stroke-width="1" stroke-linejoin="round"/><path d="M31 0a3 3 0 1 1 0 6a3 3 0 1 1 0 -6ZM51 -7.4a3.4 3.4 0 1 1 0 6.8a3.4 3.4 0 1 1 0 -6.8ZM71 0a3 3 0 1 1 0 6a3 3 0 1 1 0 -6Z" fill="url(#dmr-th-cg)" stroke="#fff" stroke-width="2.5"/><path d="M51 10.2a3.3 3.3 0 1 1 0 6.6a3.3 3.3 0 1 1 0 -6.6Z" fill="#27c3b5" stroke="#fff" stroke-width="1.5"/><circle cx="49.8" cy="12.3" r="1" fill="#fff"/><g transform="translate(51 -4) scale(0.7)"><g class="dmr-th-cs"><path d="M0 -7Q.8 -.8 7 0Q.8 .8 0 7Q-.8 .8 -7 0Q-.8 -.8 0 -7Z" fill="#fff"/></g></g></g></g></g></g><g transform="translate(50 58)"><g class="dmr-th-fc"><g transform="translate(-50 -58)"><g class="dmr-th-en"><g class="dmr-th-lk"><g transform="translate(50 51)"><g class="dmr-th-bl"><g transform="translate(-50 -51)"><path d="M27.5 51H46.5A9.5 9.5 0 0 1 27.5 51ZM53.5 51H72.5A9.5 9.5 0 0 1 53.5 51Z" fill="#fff"/><clipPath id="dmr-th-e"><path d="M27.5 51H46.5A9.5 9.5 0 0 1 27.5 51ZM53.5 51H72.5A9.5 9.5 0 0 1 53.5 51Z"/></clipPath><g clip-path="url(#dmr-th-e)"><g class="dmr-th-pu"><path d="M42 50.8a4.2 4.2 0 1 1 0 8.4a4.2 4.2 0 1 1 0 -8.4ZM68 50.8a4.2 4.2 0 1 1 0 8.4a4.2 4.2 0 1 1 0 -8.4Z" fill="#3a0c16"/></g></g></g></g></g></g></g><g class="dmr-th-mn"><g transform="translate(54 73)"><g class="dmr-th-mo"><g transform="translate(-54 -73)"><path d="M51 73.5L60 71.5" fill="none" stroke="#fff" stroke-width="5" stroke-linecap="round" stroke-linejoin="round"/></g></g></g></g></g></g></g></g></g></g></g></g></g></g></g></g></g><g class="dmr-th-tb"><circle cx="88" cy="16" r="2.8" fill="#fff" stroke="#E3D9C4" stroke-width="1.2"/><circle cx="95" cy="6" r="4.3" fill="#fff" stroke="#E3D9C4" stroke-width="1.2"/><g filter="url(#dmr-th-f)"><rect x="89" y="-24" width="30" height="21" rx="10.5" fill="#fff"/></g><g transform="translate(97 -13.5)"><g class="dmr-th-dt dmr-th-d0"><circle r="2.3" fill="#B81F2E"/></g></g><g transform="translate(104 -13.5)"><g class="dmr-th-dt dmr-th-d1"><circle r="2.3" fill="#B81F2E"/></g></g><g transform="translate(111 -13.5)"><g class="dmr-th-dt dmr-th-d2"><circle r="2.3" fill="#B81F2E"/></g></g></g>
</svg>
