<svg xmlns="http://www.w3.org/2000/svg" viewBox="-22 -26 144 144" width="288" height="288" role="img" aria-label="Observer: error">
<title>Observer: error</title>
<style>
.dmo-er-hi{animation:dmo-er-hi 4s ease-in-out infinite}
@keyframes dmo-er-hi{0%,100%{transform:scale(1);opacity:.85}50%{transform:scale(1.12,1.06) translate(1px,-.5px);opacity:1}}
.dmo-er-gl{animation:dmo-er-gl 4s ease-in-out infinite -2.6s}
@keyframes dmo-er-gl{0%{transform:translateX(-10px)}28%,100%{transform:translateX(125px)}}
.dmo-er-bl{animation:dmo-er-bl 4s linear infinite -1.8s}
@keyframes dmo-er-bl{0%,22%,28%,70%,76%,82%,100%{transform:scaleY(1)}25%,73%,79%{transform:scaleY(.1)}}
.dmo-er-tl{animation:dmo-er-tl 4s infinite}
@keyframes dmo-er-tl{0%{transform:translateX(0) rotate(-4deg);animation-timing-function:ease-in-out}6.25%{transform:translateX(-6px) rotate(-10deg);animation-timing-function:ease-in-out}11.25%{transform:translateX(5px) rotate(3deg);animation-timing-function:ease-in-out}16.25%{transform:translateX(-4px) rotate(-9deg);animation-timing-function:ease-in-out}21.25%{transform:translateX(2.5px) rotate(0deg);animation-timing-function:ease-in-out}26.25%{transform:translateX(-1px) rotate(-6deg);animation-timing-function:ease-in-out}32.5%{transform:translateX(0) rotate(-4deg);animation-timing-function:ease-in-out}65%{transform:translateX(0) rotate(-6deg);animation-timing-function:ease-in-out}100%{transform:translateX(0) rotate(-4deg)}}
.dmo-er-sq{animation:dmo-er-sq 4s ease-in-out infinite}
@keyframes dmo-er-sq{0%{transform:scale(1.03,.96)}35%{transform:scale(1.02,.97)}60%{transform:scale(1.07,.92)}80%{transform:scale(1.03,.96)}100%{transform:scale(1.03,.96)}}
.dmo-er-lk{animation:dmo-er-lk 4s ease-in-out infinite}
@keyframes dmo-er-lk{0%,30%,100%{transform:translate(0,2px)}45%,80%{transform:translate(2.5px,1px)}}
.dmo-er-brw{animation:dmo-er-brw 2s ease-in-out infinite}
@keyframes dmo-er-brw{0%,100%{transform:translateY(0)}50%{transform:translateY(-1.2px)}}
.dmo-er-sh{animation:dmo-er-sh 4s ease-in-out infinite}
@keyframes dmo-er-sh{0%,100%{transform:scale(1)}10%{transform:scale(.95) translateX(-2px)}20%{transform:scale(.95) translateX(2px)}}
.dmo-er-sw{animation:dmo-er-sw 2s ease-in infinite;opacity:0}
@keyframes dmo-er-sw{0%,15%{transform:translate(0,-2px) scale(.4);opacity:0}30%{transform:translate(0,0) scale(1);opacity:1}75%{opacity:1}95%,100%{transform:translate(1px,12px) scale(.8);opacity:0}}
.dmo-er-q1,.dmo-er-q2{animation:dmo-er-q 4s infinite}.dmo-er-q2{animation-delay:.25s}
@keyframes dmo-er-q{0%{transform:scale(0) rotate(-20deg);opacity:0}22.5%{transform:scale(0) rotate(-20deg);opacity:0;animation-timing-function:cubic-bezier(.3,1.6,.5,1)}32.5%{transform:scale(1) rotate(8deg);opacity:1;animation-timing-function:ease-in-out}50%{transform:scale(1) rotate(-8deg);opacity:1;animation-timing-function:ease-in-out}70%{transform:scale(1) rotate(6deg);opacity:1;animation-timing-function:ease-in}90%{transform:scale(.9) rotate(0) translateY(-4px);opacity:0}100%{transform:scale(0);opacity:0}}
.dmo-er-ant{animation:dmo-er-ant 4s ease-in-out infinite}@keyframes dmo-er-ant{0%,100%{transform:rotate(-30deg)}50%{transform:rotate(-24deg)}}.dmo-er-tip{opacity:.75}
@media (prefers-reduced-motion:reduce){*{animation:none!important}}
</style>
<defs><radialGradient id="dmo-er-b" cx=".36" cy=".28" r=".8"><stop offset="0" stop-color="#4aa2ff"/><stop offset=".6" stop-color="#2f86ff"/><stop offset="1" stop-color="#1c66e0"/></radialGradient><linearGradient id="dmo-er-s" x1="0" y1="0" x2="0" y2="1"><stop offset=".45" stop-color="#0B0F3A" stop-opacity="0"/><stop offset="1" stop-color="#0B0F3A" stop-opacity=".28"/></linearGradient><radialGradient id="dmo-er-h" cx=".5" cy=".5" r=".5"><stop offset="0" stop-color="#fff" stop-opacity=".85"/><stop offset="1" stop-color="#fff" stop-opacity="0"/></radialGradient><radialGradient id="dmo-er-g" cx=".5" cy=".5" r=".5"><stop offset="0" stop-color="#1B2150" stop-opacity=".26"/><stop offset=".6" stop-color="#1B2150" stop-opacity=".12"/><stop offset="1" stop-color="#1B2150" stop-opacity="0"/></radialGradient><linearGradient id="dmo-er-w" x1="0" y1="0" x2="1" y2="0"><stop offset="0" stop-color="#fff" stop-opacity="0"/><stop offset=".5" stop-color="#fff" stop-opacity=".55"/><stop offset="1" stop-color="#fff" stop-opacity="0"/></linearGradient><filter id="dmo-er-f" x="-20%" y="-20%" width="140%" height="140%"><feDropShadow dx="0" dy="1.6" stdDeviation="1.4" flood-color="#141A4A" flood-opacity=".2"/></filter></defs>
<g transform="translate(50 102.66)"><g class="dmo-er-sh"><g transform="translate(-50 -102.66)"><ellipse cx="50" cy="102.66" rx="30" ry="6" fill="url(#dmo-er-g)"/></g></g></g><g class="dmo-er-mv"><g class="dmo-er-bob"><g filter="url(#dmo-er-f)"><g transform="translate(50 97.16)"><g class="dmo-er-sq"><g transform="translate(-50 -97.16)"><g transform="translate(50 60)"><g class="dmo-er-tl"><g transform="translate(-50 -60)"><path d="M50 8.34A31 31 0 0 1 91.66 50A31 31 0 0 1 50 91.66A31 31 0 0 1 8.34 50A31 31 0 0 1 50 8.34Z" fill="#fff" stroke="#fff" stroke-width="11" stroke-linejoin="round"/><g transform="translate(50 12.34)"><g class="dmo-er-ant"><g transform="translate(-50 -12.34)"><path d="M50 12.34L50 -1" fill="none" stroke="#fff" stroke-width="15" stroke-linecap="round" stroke-linejoin="round"/><path d="M50 -6a5 5 0 1 1 0 10a5 5 0 1 1 0 -10Z" fill="#fff" stroke="#fff" stroke-width="11"/><path d="M50 12.34L50 -1" fill="none" stroke="#1d63d8" stroke-width="4.5" stroke-linecap="round" stroke-linejoin="round"/><g transform="translate(50 -1)"><g class="dmo-er-ring dmo-er-r1"><g transform="translate(-50 1)"><circle cx="50" cy="-1" r="5" fill="none" stroke="#ffd23f" stroke-width="2"/></g></g></g><g transform="translate(50 -1)"><g class="dmo-er-ring dmo-er-r2"><g transform="translate(-50 1)"><circle cx="50" cy="-1" r="5" fill="none" stroke="#ffd23f" stroke-width="2"/></g></g></g><g transform="translate(50 -1)"><g class="dmo-er-ring dmo-er-r3"><g transform="translate(-50 1)"><circle cx="50" cy="-1" r="5" fill="none" stroke="#ffd23f" stroke-width="2"/></g></g></g><g transform="translate(50 -1)"><g class="dmo-er-tip"><g transform="translate(-50 1)"><path d="M50 -6a5 5 0 1 1 0 10a5 5 0 1 1 0 -10Z" fill="#ffd23f"/><circle cx="48.3" cy="-2.8" r="1.6" fill="#fff" opacity=".85"/></g></g></g></g></g></g><path d="M50 8.34A31 31 0 0 1 91.66 50A31 31 0 0 1 50 91.66A31 31 0 0 1 8.34 50A31 31 0 0 1 50 8.34Z" fill="url(#dmo-er-b)"/><path d="M50 8.34A31 31 0 0 1 91.66 50A31 31 0 0 1 50 91.66A31 31 0 0 1 8.34 50A31 31 0 0 1 50 8.34Z" fill="url(#dmo-er-s)"/><clipPath id="dmo-er-c"><path d="M50 8.34A31 31 0 0 1 91.66 50A31 31 0 0 1 50 91.66A31 31 0 0 1 8.34 50A31 31 0 0 1 50 8.34Z"/></clipPath><g clip-path="url(#dmo-er-c)"><g class="dmo-er-gl"><rect x="-10" y="-20" width="14" height="140" fill="url(#dmo-er-w)" transform="rotate(20 0 50)"/></g></g><g transform="translate(36 30)"><g class="dmo-er-hi"><g transform="translate(-36 -30)"><path d="M21 30a15 8 0 1 0 30 0a15 8 0 1 0 -30 0Z" fill="url(#dmo-er-h)" opacity=".9"/><path d="M28 29a5 2.6 0 1 0 10 0a5 2.6 0 1 0 -10 0Z" fill="#fff" opacity=".8"/></g></g></g><g transform="translate(50 55)"><g class="dmo-er-fc"><g transform="translate(-50 -55)"><g class="dmo-er-en"><g class="dmo-er-lk"><g transform="translate(50 45)"><g class="dmo-er-bl"><g transform="translate(-50 -45)"><path d="M33.5 40.5a5.5 5.5 0 0 1 11 0v9a5.5 5.5 0 0 1 -11 0ZM55.5 40.5a5.5 5.5 0 0 1 11 0v9a5.5 5.5 0 0 1 -11 0Z" fill="#fff"/></g></g></g><g class="dmo-er-brw"><path d="M33 30L44 26M67 30L56 26" fill="none" stroke="#fff" stroke-width="4.5" stroke-linecap="round" stroke-linejoin="round"/></g></g></g><g class="dmo-er-mn"><g transform="translate(50 67)"><g class="dmo-er-mo"><g transform="translate(-50 -67)"><path d="M43 70Q50 63 57 70" fill="none" stroke="#fff" stroke-width="5" stroke-linecap="round" stroke-linejoin="round"/></g></g></g></g></g></g></g><g transform="translate(80 22) scale(1.2)"><g class="dmo-er-sw"><path d="M0 -5C1.5 -2.5 3.2 -.6 3.2 1.6A3.2 3.2 0 0 1 -3.2 1.6C-3.2 -.6 -1.5 -2.5 0 -5Z" fill="#9fd4ff" stroke="#fff" stroke-width="1.6"/><circle cx="-1" cy="1" r=".9" fill="#fff"/></g></g></g></g></g></g></g></g></g></g></g><g transform="translate(98 -2) scale(1.5)"><g class="dmo-er-q1"><path d="M-3.4 -4.2Q-3.4 -8 .2 -8Q3.8 -8 3.8 -4.6Q3.8 -2.2 1 -.9Q0 -.3 0 1.6" fill="none" stroke="#fff" stroke-width="6" stroke-linecap="round" stroke-linejoin="round"/><circle cx="0" cy="5.4" r="3" fill="#fff"/><path d="M-3.4 -4.2Q-3.4 -8 .2 -8Q3.8 -8 3.8 -4.6Q3.8 -2.2 1 -.9Q0 -.3 0 1.6" fill="none" stroke="#141413" stroke-width="2.6" stroke-linecap="round" stroke-linejoin="round"/><circle cx="0" cy="5.4" r="1.6" fill="#141413"/></g></g><g transform="translate(112 16)"><g class="dmo-er-q2"><path d="M-3.4 -4.2Q-3.4 -8 .2 -8Q3.8 -8 3.8 -4.6Q3.8 -2.2 1 -.9Q0 -.3 0 1.6" fill="none" stroke="#fff" stroke-width="6" stroke-linecap="round" stroke-linejoin="round"/><circle cx="0" cy="5.4" r="3" fill="#fff"/><path d="M-3.4 -4.2Q-3.4 -8 .2 -8Q3.8 -8 3.8 -4.6Q3.8 -2.2 1 -.9Q0 -.3 0 1.6" fill="none" stroke="#141413" stroke-width="2.6" stroke-linecap="round" stroke-linejoin="round"/><circle cx="0" cy="5.4" r="1.6" fill="#141413"/></g></g>
</svg>
