<svg xmlns="http://www.w3.org/2000/svg" viewBox="-22 -26 144 144" width="288" height="288" role="img" aria-label="Shipper: success">
<title>Shipper: success</title>
<style>
.dms-su-hi{animation:dms-su-hi 4s ease-in-out infinite}
@keyframes dms-su-hi{0%,100%{transform:scale(1);opacity:.85}50%{transform:scale(1.12,1.06) translate(1px,-.5px);opacity:1}}
.dms-su-gl{animation:dms-su-gl 4s ease-in-out infinite -3.4s}
@keyframes dms-su-gl{0%{transform:translateX(-10px)}28%,100%{transform:translateX(125px)}}
.dms-su-sq{animation:dms-su-sq 4s infinite}
@keyframes dms-su-sq{0%{transform:translateY(0) scale(1.02,.98);animation-timing-function:ease-in}6.25%{transform:translateY(0) scale(1.16,.82);animation-timing-function:cubic-bezier(.2,.7,.4,1)}12.5%{transform:translateY(-12px) scale(0.91,1.11);animation-timing-function:cubic-bezier(.2,.6,.4,1)}18%{transform:translateY(-15.6px) scale(1,1);animation-timing-function:cubic-bezier(.6,0,.9,.5)}24.5%{transform:translateY(0) scale(1.1,.9);animation-timing-function:ease-out}28.75%{transform:translateY(-1.2px) scale(.97,1.03);animation-timing-function:ease-in-out}36.25%{transform:translateY(0) scale(1.1,.9);animation-timing-function:cubic-bezier(.2,.7,.4,1)}41.25%{transform:translateY(-7.2px) scale(.95,1.06);animation-timing-function:cubic-bezier(.6,0,.9,.5)}47.5%{transform:translateY(0) scale(1.08,.92);animation-timing-function:ease-out}52.5%{transform:translateY(0) scale(1,1);animation-timing-function:ease-in-out}75%{transform:translateY(-1.2px) scale(.99,1.01);animation-timing-function:ease-in-out}100%{transform:translateY(0) scale(1.02,.98)}}
.dms-su-tl{animation:dms-su-tl 4s ease-in-out infinite}
@keyframes dms-su-tl{0%{transform:rotate(0)}12.5%{transform:rotate(-8deg)}21.25%{transform:rotate(8deg)}27.5%{transform:rotate(0)}41.25%{transform:rotate(5deg)}48.75%{transform:rotate(0)}100%{transform:rotate(0)}}
.dms-su-sh{animation:dms-su-sh 4s infinite}
@keyframes dms-su-sh{0%{transform:scale(1);opacity:1}6.25%{transform:scale(1.1)}18%{transform:scale(.55);opacity:.4}24.5%{transform:scale(1.08);opacity:1}41.25%{transform:scale(.8);opacity:.7}47.5%{transform:scale(1.05);opacity:1}100%{transform:scale(1);opacity:1}}
.dms-su-cf{animation:4s infinite;opacity:0}
@keyframes dms-su-c0{0%{transform:translate(0,0) scale(0);opacity:0}13.75%{transform:translate(0,0) scale(0);opacity:0;animation-timing-function:cubic-bezier(.1,.8,.3,1)}26.25%{transform:translate(-28.98px,-7.76px) rotate(-90deg) scale(1);opacity:1;animation-timing-function:cubic-bezier(.5,0,.8,.6)}57.5%{transform:translate(-36.22px,36.24px) rotate(-180deg) scale(.9);opacity:0}100%{transform:scale(0);opacity:0}}
@keyframes dms-su-c1{0%{transform:translate(0,0) scale(0);opacity:0}13.75%{transform:translate(0,0) scale(0);opacity:0;animation-timing-function:cubic-bezier(.1,.8,.3,1)}26.25%{transform:translate(-33.35px,-18.21px) rotate(105deg) scale(1);opacity:1;animation-timing-function:cubic-bezier(.5,0,.8,.6)}57.5%{transform:translate(-41.69px,25.79px) rotate(210deg) scale(.9);opacity:0}100%{transform:scale(0);opacity:0}}
@keyframes dms-su-c2{0%{transform:translate(0,0) scale(0);opacity:0}13.75%{transform:translate(0,0) scale(0);opacity:0;animation-timing-function:cubic-bezier(.1,.8,.3,1)}26.25%{transform:translate(-34.04px,-30.94px) rotate(-120deg) scale(1);opacity:1;animation-timing-function:cubic-bezier(.5,0,.8,.6)}57.5%{transform:translate(-42.55px,13.06px) rotate(-240deg) scale(.9);opacity:0}100%{transform:scale(0);opacity:0}}
@keyframes dms-su-c3{0%{transform:translate(0,0) scale(0);opacity:0}13.75%{transform:translate(0,0) scale(0);opacity:0;animation-timing-function:cubic-bezier(.1,.8,.3,1)}26.25%{transform:translate(-16.82px,-24.84px) rotate(135deg) scale(1);opacity:1;animation-timing-function:cubic-bezier(.5,0,.8,.6)}57.5%{transform:translate(-21.02px,19.16px) rotate(270deg) scale(.9);opacity:0}100%{transform:scale(0);opacity:0}}
@keyframes dms-su-c4{0%{transform:translate(0,0) scale(0);opacity:0}13.75%{transform:translate(0,0) scale(0);opacity:0;animation-timing-function:cubic-bezier(.1,.8,.3,1)}26.25%{transform:translate(-13.28px,-35.6px) rotate(-150deg) scale(1);opacity:1;animation-timing-function:cubic-bezier(.5,0,.8,.6)}57.5%{transform:translate(-16.6px,8.4px) rotate(-300deg) scale(.9);opacity:0}100%{transform:scale(0);opacity:0}}
@keyframes dms-su-c5{0%{transform:translate(0,0) scale(0);opacity:0}13.75%{transform:translate(0,0) scale(0);opacity:0;animation-timing-function:cubic-bezier(.1,.8,.3,1)}26.25%{transform:translate(-5.46px,-45.67px) rotate(165deg) scale(1);opacity:1;animation-timing-function:cubic-bezier(.5,0,.8,.6)}57.5%{transform:translate(-6.82px,-1.67px) rotate(330deg) scale(.9);opacity:0}100%{transform:scale(0);opacity:0}}
@keyframes dms-su-c6{0%{transform:translate(0,0) scale(0);opacity:0}13.75%{transform:translate(0,0) scale(0);opacity:0;animation-timing-function:cubic-bezier(.1,.8,.3,1)}26.25%{transform:translate(3.56px,-29.79px) rotate(-180deg) scale(1);opacity:1;animation-timing-function:cubic-bezier(.5,0,.8,.6)}57.5%{transform:translate(4.45px,14.21px) rotate(-360deg) scale(.9);opacity:0}100%{transform:scale(0);opacity:0}}
@keyframes dms-su-c7{0%{transform:translate(0,0) scale(0);opacity:0}13.75%{transform:translate(0,0) scale(0);opacity:0;animation-timing-function:cubic-bezier(.1,.8,.3,1)}26.25%{transform:translate(13.28px,-35.6px) rotate(195deg) scale(1);opacity:1;animation-timing-function:cubic-bezier(.5,0,.8,.6)}57.5%{transform:translate(16.6px,8.4px) rotate(390deg) scale(.9);opacity:0}100%{transform:scale(0);opacity:0}}
@keyframes dms-su-c8{0%{transform:translate(0,0) scale(0);opacity:0}13.75%{transform:translate(0,0) scale(0);opacity:0;animation-timing-function:cubic-bezier(.1,.8,.3,1)}26.25%{transform:translate(25.78px,-38.09px) rotate(-210deg) scale(1);opacity:1;animation-timing-function:cubic-bezier(.5,0,.8,.6)}57.5%{transform:translate(32.23px,5.91px) rotate(-420deg) scale(.9);opacity:0}100%{transform:scale(0);opacity:0}}
@keyframes dms-su-c9{0%{transform:translate(0,0) scale(0);opacity:0}13.75%{transform:translate(0,0) scale(0);opacity:0;animation-timing-function:cubic-bezier(.1,.8,.3,1)}26.25%{transform:translate(22.2px,-20.18px) rotate(225deg) scale(1);opacity:1;animation-timing-function:cubic-bezier(.5,0,.8,.6)}57.5%{transform:translate(27.75px,23.82px) rotate(450deg) scale(.9);opacity:0}100%{transform:scale(0);opacity:0}}
@keyframes dms-su-c10{0%{transform:translate(0,0) scale(0);opacity:0}13.75%{transform:translate(0,0) scale(0);opacity:0;animation-timing-function:cubic-bezier(.1,.8,.3,1)}26.25%{transform:translate(33.35px,-18.21px) rotate(-240deg) scale(1);opacity:1;animation-timing-function:cubic-bezier(.5,0,.8,.6)}57.5%{transform:translate(41.69px,25.79px) rotate(-480deg) scale(.9);opacity:0}100%{transform:scale(0);opacity:0}}
@keyframes dms-su-c11{0%{transform:translate(0,0) scale(0);opacity:0}13.75%{transform:translate(0,0) scale(0);opacity:0;animation-timing-function:cubic-bezier(.1,.8,.3,1)}26.25%{transform:translate(44.43px,-11.91px) rotate(255deg) scale(1);opacity:1;animation-timing-function:cubic-bezier(.5,0,.8,.6)}57.5%{transform:translate(55.54px,32.09px) rotate(510deg) scale(.9);opacity:0}100%{transform:scale(0);opacity:0}}
.dms-su-ok{animation:dms-su-ok 4s infinite;transform:scale(0)}
@keyframes dms-su-ok{0%{transform:scale(0) rotate(-30deg)}15%{transform:scale(0) rotate(-30deg);animation-timing-function:cubic-bezier(.3,1.6,.5,1)}26.25%{transform:scale(1) rotate(0)}87.5%{transform:scale(1) rotate(0);animation-timing-function:ease-in}95%{transform:scale(0) rotate(20deg)}100%{transform:scale(0)}}
.dms-su-ck2{animation:dms-su-ck2 4s infinite}
@keyframes dms-su-ck2{0%{stroke-dashoffset:16}21.25%{stroke-dashoffset:16;animation-timing-function:ease-out}31.25%{stroke-dashoffset:0}100%{stroke-dashoffset:0}}
.dms-su-sp{animation:dms-su-sp 2s ease-in-out infinite;opacity:0}
@keyframes dms-su-sp{0%,20%{transform:scale(0) rotate(0);opacity:0}45%{transform:scale(1.2) rotate(60deg);opacity:1}75%,100%{transform:scale(0) rotate(120deg);opacity:0}}
@media (prefers-reduced-motion:reduce){*{animation:none!important}}
</style>
<defs><radialGradient id="dms-su-b" cx=".36" cy=".28" r=".8"><stop offset="0" stop-color="#5ff0b4"/><stop offset=".6" stop-color="#22d18b"/><stop offset="1" stop-color="#0fae6f"/></radialGradient><linearGradient id="dms-su-s" x1="0" y1="0" x2="0" y2="1"><stop offset=".45" stop-color="#0B0F3A" stop-opacity="0"/><stop offset="1" stop-color="#0B0F3A" stop-opacity=".28"/></linearGradient><radialGradient id="dms-su-h" cx=".5" cy=".5" r=".5"><stop offset="0" stop-color="#fff" stop-opacity=".85"/><stop offset="1" stop-color="#fff" stop-opacity="0"/></radialGradient><radialGradient id="dms-su-g" cx=".5" cy=".5" r=".5"><stop offset="0" stop-color="#1B2150" stop-opacity=".26"/><stop offset=".6" stop-color="#1B2150" stop-opacity=".12"/><stop offset="1" stop-color="#1B2150" stop-opacity="0"/></radialGradient><linearGradient id="dms-su-w" x1="0" y1="0" x2="1" y2="0"><stop offset="0" stop-color="#fff" stop-opacity="0"/><stop offset=".5" stop-color="#fff" stop-opacity=".55"/><stop offset="1" stop-color="#fff" stop-opacity="0"/></linearGradient><filter id="dms-su-f" x="-20%" y="-20%" width="140%" height="140%"><feDropShadow dx="0" dy="1.6" stdDeviation="1.4" flood-color="#141A4A" flood-opacity=".2"/></filter></defs>
<g transform="translate(50 108)"><g class="dms-su-sh"><g transform="translate(-50 -108)"><ellipse cx="50" cy="108" rx="31" ry="6.2" fill="url(#dms-su-g)"/></g></g></g><g transform="translate(50 26)"><g class="dms-su-cf" style="animation-name:dms-su-c0"><rect x="-1.6" y="-3" width="3.2" height="6" rx="1" fill="#F6D76B"/></g></g><g transform="translate(50 26)"><g class="dms-su-cf" style="animation-name:dms-su-c1"><circle r="2.2" fill="#ff5c93"/></g></g><g transform="translate(50 26)"><g class="dms-su-cf" style="animation-name:dms-su-c2"><path d="M-3 0Q0 -3 3 0" fill="none" stroke="#4aa2ff" stroke-width="2" stroke-linecap="round"/></g></g><g transform="translate(50 26)"><g class="dms-su-cf" style="animation-name:dms-su-c3"><rect x="-1.6" y="-3" width="3.2" height="6" rx="1" fill="#A9B46E"/></g></g><g transform="translate(50 26)"><g class="dms-su-cf" style="animation-name:dms-su-c4"><circle r="2.2" fill="#8e5cff"/></g></g><g transform="translate(50 26)"><g class="dms-su-cf" style="animation-name:dms-su-c5"><path d="M-3 0Q0 -3 3 0" fill="none" stroke="#22d18b" stroke-width="2" stroke-linecap="round"/></g></g><g transform="translate(50 26)"><g class="dms-su-cf" style="animation-name:dms-su-c6"><rect x="-1.6" y="-3" width="3.2" height="6" rx="1" fill="#ff9a3d"/></g></g><g transform="translate(50 26)"><g class="dms-su-cf" style="animation-name:dms-su-c7"><circle r="2.2" fill="#F3B5D5"/></g></g><g transform="translate(50 26)"><g class="dms-su-cf" style="animation-name:dms-su-c8"><path d="M-3 0Q0 -3 3 0" fill="none" stroke="#F6D76B" stroke-width="2" stroke-linecap="round"/></g></g><g transform="translate(50 26)"><g class="dms-su-cf" style="animation-name:dms-su-c9"><rect x="-1.6" y="-3" width="3.2" height="6" rx="1" fill="#4aa2ff"/></g></g><g transform="translate(50 26)"><g class="dms-su-cf" style="animation-name:dms-su-c10"><circle r="2.2" fill="#ff5c93"/></g></g><g transform="translate(50 26)"><g class="dms-su-cf" style="animation-name:dms-su-c11"><path d="M-3 0Q0 -3 3 0" fill="none" stroke="#22d18b" stroke-width="2" stroke-linecap="round"/></g></g><g class="dms-su-mv"><g class="dms-su-bob"><g filter="url(#dms-su-f)"><g transform="translate(50 101.5)"><g class="dms-su-sq"><g transform="translate(-50 -101.5)"><g transform="translate(50 50)"><g class="dms-su-tl"><g transform="translate(-50 -50)"><path d="M50 4C56 4 60 7 64 11L89 36C93 40 96 44 96 50C96 56 93 60 89 64L64 89C60 93 56 96 50 96C44 96 40 93 36 89L11 64C7 60 4 56 4 50C4 44 7 40 11 36L36 11C40 7 44 4 50 4Z" fill="#fff" stroke="#fff" stroke-width="11" stroke-linejoin="round"/><path d="M50 4C56 4 60 7 64 11L89 36C93 40 96 44 96 50C96 56 93 60 89 64L64 89C60 93 56 96 50 96C44 96 40 93 36 89L11 64C7 60 4 56 4 50C4 44 7 40 11 36L36 11C40 7 44 4 50 4Z" fill="url(#dms-su-b)"/><path d="M50 4C56 4 60 7 64 11L89 36C93 40 96 44 96 50C96 56 93 60 89 64L64 89C60 93 56 96 50 96C44 96 40 93 36 89L11 64C7 60 4 56 4 50C4 44 7 40 11 36L36 11C40 7 44 4 50 4Z" fill="url(#dms-su-s)"/><clipPath id="dms-su-c"><path d="M50 4C56 4 60 7 64 11L89 36C93 40 96 44 96 50C96 56 93 60 89 64L64 89C60 93 56 96 50 96C44 96 40 93 36 89L11 64C7 60 4 56 4 50C4 44 7 40 11 36L36 11C40 7 44 4 50 4Z"/></clipPath><g clip-path="url(#dms-su-c)"><g class="dms-su-gl"><rect x="-10" y="-20" width="14" height="140" fill="url(#dms-su-w)" transform="rotate(20 0 50)"/></g></g><g transform="translate(38 26)"><g class="dms-su-hi"><g transform="translate(-38 -26)"><path d="M23 26a15 8 0 1 0 30 0a15 8 0 1 0 -30 0Z" fill="url(#dms-su-h)" opacity=".9"/><path d="M30 25a5 2.6 0 1 0 10 0a5 2.6 0 1 0 -10 0Z" fill="#fff" opacity=".8"/></g></g></g><g transform="translate(50 50)"><g class="dms-su-fc"><g transform="translate(-50 -50)"><g class="dms-su-en"><g class="dms-su-lk"><path d="M32 47Q38 38 44 47M56 47Q62 38 68 47" fill="none" stroke="#fff" stroke-width="5.5" stroke-linecap="round" stroke-linejoin="round"/></g></g><g class="dms-su-mn"><g transform="translate(50 63)"><g class="dms-su-mo"><g transform="translate(-50 -63)"><clipPath id="dms-su-mc"><path d="M41 60H59A9 9 0 0 1 41 60Z"/></clipPath><path d="M41 60H59A9 9 0 0 1 41 60Z" fill="#fff" stroke="#fff" stroke-width="2" stroke-linejoin="round"/><ellipse cx="50" cy="68" rx="5" ry="3" fill="#ff6f9c" clip-path="url(#dms-su-mc)"/></g></g></g></g><g class="dms-su-ck" opacity="0.75"><ellipse cx="27" cy="56" rx="6" ry="3.6" fill="#ff5c93"/><ellipse cx="73" cy="56" rx="6" ry="3.6" fill="#ff5c93"/></g></g></g></g></g></g></g></g></g></g></g></g></g><g transform="translate(-8 10) scale(0.9)"><g class="dms-su-sp" style="animation-delay:0s"><path d="M0 -7Q.8 -.8 7 0Q.8 .8 0 7Q-.8 .8 -7 0Q-.8 -.8 0 -7Z" fill="#F6D76B" stroke="#fff" stroke-width="1"/></g></g><g transform="translate(104 40) scale(0.7)"><g class="dms-su-sp" style="animation-delay:0.15s"><path d="M0 -7Q.8 -.8 7 0Q.8 .8 0 7Q-.8 .8 -7 0Q-.8 -.8 0 -7Z" fill="#fff" stroke="#22d18b" stroke-width="1"/></g></g><g transform="translate(6 -14) scale(0.7)"><g class="dms-su-sp" style="animation-delay:0.3s"><path d="M0 -7Q.8 -.8 7 0Q.8 .8 0 7Q-.8 .8 -7 0Q-.8 -.8 0 -7Z" fill="#5ff0b4" stroke="#fff" stroke-width="1"/></g></g><g transform="translate(94 0)"><g class="dms-su-ok"><circle r="10" fill="#1FB57A" stroke="#fff" stroke-width="3"/><path class="dms-su-ck2" d="M-4.6 .2L-1.4 3.4L4.8 -3.4" fill="none" stroke="#fff" stroke-width="3" stroke-linecap="round" stroke-linejoin="round" stroke-dasharray="16" stroke-dashoffset="16"/></g></g>
</svg>
