<svg xmlns="http://www.w3.org/2000/svg" viewBox="-22 -26 144 144" width="288" height="288" role="img" aria-label="Shipper: error">
<title>Shipper: error</title>
<style>
.dms-er-hi{animation:dms-er-hi 4s ease-in-out infinite}
@keyframes dms-er-hi{0%,100%{transform:scale(1);opacity:.85}50%{transform:scale(1.12,1.06) translate(1px,-.5px);opacity:1}}
.dms-er-gl{animation:dms-er-gl 4s ease-in-out infinite -2.6s}
@keyframes dms-er-gl{0%{transform:translateX(-10px)}28%,100%{transform:translateX(125px)}}
.dms-er-bl{animation:dms-er-bl 4s linear infinite -1.8s}
@keyframes dms-er-bl{0%,22%,28%,70%,76%,82%,100%{transform:scaleY(1)}25%,73%,79%{transform:scaleY(.1)}}
.dms-er-tl{animation:dms-er-tl 4s infinite}
@keyframes dms-er-tl{0%{transform:translateX(0) rotate(-4deg);animation-timing-function:ease-in-out}6.25%{transform:translateX(-6px) rotate(-10deg);animation-timing-function:ease-in-out}11.25%{transform:translateX(5px) rotate(3deg);animation-timing-function:ease-in-out}16.25%{transform:translateX(-4px) rotate(-9deg);animation-timing-function:ease-in-out}21.25%{transform:translateX(2.5px) rotate(0deg);animation-timing-function:ease-in-out}26.25%{transform:translateX(-1px) rotate(-6deg);animation-timing-function:ease-in-out}32.5%{transform:translateX(0) rotate(-4deg);animation-timing-function:ease-in-out}65%{transform:translateX(0) rotate(-6deg);animation-timing-function:ease-in-out}100%{transform:translateX(0) rotate(-4deg)}}
.dms-er-sq{animation:dms-er-sq 4s ease-in-out infinite}
@keyframes dms-er-sq{0%{transform:scale(1.03,.96)}35%{transform:scale(1.02,.97)}60%{transform:scale(1.07,.92)}80%{transform:scale(1.03,.96)}100%{transform:scale(1.03,.96)}}
.dms-er-lk{animation:dms-er-lk 4s ease-in-out infinite}
@keyframes dms-er-lk{0%,30%,100%{transform:translate(0,2px)}45%,80%{transform:translate(2.5px,1px)}}
.dms-er-brw{animation:dms-er-brw 2s ease-in-out infinite}
@keyframes dms-er-brw{0%,100%{transform:translateY(0)}50%{transform:translateY(-1.2px)}}
.dms-er-sh{animation:dms-er-sh 4s ease-in-out infinite}
@keyframes dms-er-sh{0%,100%{transform:scale(1)}10%{transform:scale(.95) translateX(-2px)}20%{transform:scale(.95) translateX(2px)}}
.dms-er-sw{animation:dms-er-sw 2s ease-in infinite;opacity:0}
@keyframes dms-er-sw{0%,15%{transform:translate(0,-2px) scale(.4);opacity:0}30%{transform:translate(0,0) scale(1);opacity:1}75%{opacity:1}95%,100%{transform:translate(1px,12px) scale(.8);opacity:0}}
.dms-er-q1,.dms-er-q2{animation:dms-er-q 4s infinite}.dms-er-q2{animation-delay:.25s}
@keyframes dms-er-q{0%{transform:scale(0) rotate(-20deg);opacity:0}22.5%{transform:scale(0) rotate(-20deg);opacity:0;animation-timing-function:cubic-bezier(.3,1.6,.5,1)}32.5%{transform:scale(1) rotate(8deg);opacity:1;animation-timing-function:ease-in-out}50%{transform:scale(1) rotate(-8deg);opacity:1;animation-timing-function:ease-in-out}70%{transform:scale(1) rotate(6deg);opacity:1;animation-timing-function:ease-in}90%{transform:scale(.9) rotate(0) translateY(-4px);opacity:0}100%{transform:scale(0);opacity:0}}
@media (prefers-reduced-motion:reduce){*{animation:none!important}}
</style>
<defs><radialGradient id="dms-er-b" cx=".36" cy=".28" r=".8"><stop offset="0" stop-color="#5ff0b4"/><stop offset=".6" stop-color="#22d18b"/><stop offset="1" stop-color="#0fae6f"/></radialGradient><linearGradient id="dms-er-s" x1="0" y1="0" x2="0" y2="1"><stop offset=".45" stop-color="#0B0F3A" stop-opacity="0"/><stop offset="1" stop-color="#0B0F3A" stop-opacity=".28"/></linearGradient><radialGradient id="dms-er-h" cx=".5" cy=".5" r=".5"><stop offset="0" stop-color="#fff" stop-opacity=".85"/><stop offset="1" stop-color="#fff" stop-opacity="0"/></radialGradient><radialGradient id="dms-er-g" cx=".5" cy=".5" r=".5"><stop offset="0" stop-color="#1B2150" stop-opacity=".26"/><stop offset=".6" stop-color="#1B2150" stop-opacity=".12"/><stop offset="1" stop-color="#1B2150" stop-opacity="0"/></radialGradient><linearGradient id="dms-er-w" x1="0" y1="0" x2="1" y2="0"><stop offset="0" stop-color="#fff" stop-opacity="0"/><stop offset=".5" stop-color="#fff" stop-opacity=".55"/><stop offset="1" stop-color="#fff" stop-opacity="0"/></linearGradient><filter id="dms-er-f" x="-20%" y="-20%" width="140%" height="140%"><feDropShadow dx="0" dy="1.6" stdDeviation="1.4" flood-color="#141A4A" flood-opacity=".2"/></filter></defs>
<g transform="translate(50 108)"><g class="dms-er-sh"><g transform="translate(-50 -108)"><ellipse cx="50" cy="108" rx="31" ry="6.2" fill="url(#dms-er-g)"/></g></g></g><g class="dms-er-mv"><g class="dms-er-bob"><g filter="url(#dms-er-f)"><g transform="translate(50 101.5)"><g class="dms-er-sq"><g transform="translate(-50 -101.5)"><g transform="translate(50 50)"><g class="dms-er-tl"><g transform="translate(-50 -50)"><path d="M50 4C56 4 60 7 64 11L89 36C93 40 96 44 96 50C96 56 93 60 89 64L64 89C60 93 56 96 50 96C44 96 40 93 36 89L11 64C7 60 4 56 4 50C4 44 7 40 11 36L36 11C40 7 44 4 50 4Z" fill="#fff" stroke="#fff" stroke-width="11" stroke-linejoin="round"/><path d="M50 4C56 4 60 7 64 11L89 36C93 40 96 44 96 50C96 56 93 60 89 64L64 89C60 93 56 96 50 96C44 96 40 93 36 89L11 64C7 60 4 56 4 50C4 44 7 40 11 36L36 11C40 7 44 4 50 4Z" fill="url(#dms-er-b)"/><path d="M50 4C56 4 60 7 64 11L89 36C93 40 96 44 96 50C96 56 93 60 89 64L64 89C60 93 56 96 50 96C44 96 40 93 36 89L11 64C7 60 4 56 4 50C4 44 7 40 11 36L36 11C40 7 44 4 50 4Z" fill="url(#dms-er-s)"/><clipPath id="dms-er-c"><path d="M50 4C56 4 60 7 64 11L89 36C93 40 96 44 96 50C96 56 93 60 89 64L64 89C60 93 56 96 50 96C44 96 40 93 36 89L11 64C7 60 4 56 4 50C4 44 7 40 11 36L36 11C40 7 44 4 50 4Z"/></clipPath><g clip-path="url(#dms-er-c)"><g class="dms-er-gl"><rect x="-10" y="-20" width="14" height="140" fill="url(#dms-er-w)" transform="rotate(20 0 50)"/></g></g><g transform="translate(38 26)"><g class="dms-er-hi"><g transform="translate(-38 -26)"><path d="M23 26a15 8 0 1 0 30 0a15 8 0 1 0 -30 0Z" fill="url(#dms-er-h)" opacity=".9"/><path d="M30 25a5 2.6 0 1 0 10 0a5 2.6 0 1 0 -10 0Z" fill="#fff" opacity=".8"/></g></g></g><g transform="translate(50 50)"><g class="dms-er-fc"><g transform="translate(-50 -50)"><g class="dms-er-en"><g class="dms-er-lk"><g transform="translate(50 45)"><g class="dms-er-bl"><g transform="translate(-50 -45)"><path d="M34 43a4 4 0 0 1 8 0v4a4 4 0 0 1 -8 0ZM58 43a4 4 0 0 1 8 0v4a4 4 0 0 1 -8 0Z" fill="#fff"/></g></g></g><g class="dms-er-brw"><path d="M32 34.5L43 30.5M68 34.5L57 30.5" fill="none" stroke="#fff" stroke-width="4.5" stroke-linecap="round" stroke-linejoin="round"/></g></g></g><g class="dms-er-mn"><g transform="translate(50 63)"><g class="dms-er-mo"><g transform="translate(-50 -63)"><path d="M43 66Q50 59 57 66" fill="none" stroke="#fff" stroke-width="5" stroke-linecap="round" stroke-linejoin="round"/></g></g></g></g></g></g></g><g transform="translate(78 22) scale(1.2)"><g class="dms-er-sw"><path d="M0 -5C1.5 -2.5 3.2 -.6 3.2 1.6A3.2 3.2 0 0 1 -3.2 1.6C-3.2 -.6 -1.5 -2.5 0 -5Z" fill="#9fd4ff" stroke="#fff" stroke-width="1.6"/><circle cx="-1" cy="1" r=".9" fill="#fff"/></g></g></g></g></g></g></g></g></g></g></g><g transform="translate(98 -2) scale(1.5)"><g class="dms-er-q1"><path d="M-3.4 -4.2Q-3.4 -8 .2 -8Q3.8 -8 3.8 -4.6Q3.8 -2.2 1 -.9Q0 -.3 0 1.6" fill="none" stroke="#fff" stroke-width="6" stroke-linecap="round" stroke-linejoin="round"/><circle cx="0" cy="5.4" r="3" fill="#fff"/><path d="M-3.4 -4.2Q-3.4 -8 .2 -8Q3.8 -8 3.8 -4.6Q3.8 -2.2 1 -.9Q0 -.3 0 1.6" fill="none" stroke="#141413" stroke-width="2.6" stroke-linecap="round" stroke-linejoin="round"/><circle cx="0" cy="5.4" r="1.6" fill="#141413"/></g></g><g transform="translate(112 16)"><g class="dms-er-q2"><path d="M-3.4 -4.2Q-3.4 -8 .2 -8Q3.8 -8 3.8 -4.6Q3.8 -2.2 1 -.9Q0 -.3 0 1.6" fill="none" stroke="#fff" stroke-width="6" stroke-linecap="round" stroke-linejoin="round"/><circle cx="0" cy="5.4" r="3" fill="#fff"/><path d="M-3.4 -4.2Q-3.4 -8 .2 -8Q3.8 -8 3.8 -4.6Q3.8 -2.2 1 -.9Q0 -.3 0 1.6" fill="none" stroke="#141413" stroke-width="2.6" stroke-linecap="round" stroke-linejoin="round"/><circle cx="0" cy="5.4" r="1.6" fill="#141413"/></g></g>
</svg>
